<svg xmlns="http://www.w3.org/2000/svg" viewBox="357.75 148.962 194.7 118.7">
	<path d="m 374 249 l 1 -1 h -2 l -1 -1 l -2 -1 a 1 1 0 0 1 -1 -2 l -1 -1 a 1 1 0 0 1 -1 0 a 1 1 0 0 0 -1 -1 a 6 6 0 0 0 0 -1 l 1 -1 v 1 l 2 -1 l -1 -1 l -1 1 h -2 l 1 -1 l -1 1 a 3 3 0 0 0 0 -1 l -1 -2 v -3 a 4 4 0 0 0 0 -1 h -1 l 1 -2 l -1 1 l 1 -1 h -3 v -2 a 2 2 0 0 1 0 -2 h -1 l 1 -1 h -2 l 1 -2 a 4 4 0 0 1 -1 0 v -3 a 2 2 0 0 1 0 -1 c -2 -1 -1 -2 -1 -3 v -5 a 2 2 0 0 1 0 -1 l 2 -2 h -1 v -1 a 2 2 0 0 0 2 -2 a 7 7 0 0 1 -1 -1 a 2 2 0 0 1 0 -2 l 2 -1 v -1 l -1 -1 a 1 1 0 0 1 0 -1 a 9 9 0 0 1 1 -1 v -3 l -1 -1 a 10 10 0 0 0 1 -1 v -1 l -1 -1 l 1 -1 v -3 a 3 3 0 0 1 0 -2 l -1 -2 a 2 2 0 0 1 -1 -2 h -1 l 2 -1 l -1 -1 a 6 6 0 0 0 1 -1 l -1 -1 a 21 21 0 0 1 3 -1 a 4 4 0 0 0 2 -1 l 1 -1 v -1 l 1 -1 c -1 0 -1 0 0 0 l 3 -2 l 1 1 l 1 -3 l 1 1 a 9 9 0 0 1 0 -1 a 12 12 0 0 0 3 -1 l 0.322 -3.889 a 1 1 0 0 1 1 0 c 0 2 0 2 2 1 a 1 1 0 0 1 1 0 l 3 -1 v -1 l 3 -1 a 3 3 0 0 0 0 1 a 6 6 0 0 0 1 0 l 2 1 a 4 4 0 0 1 3 1 a 4 4 0 0 0 3 1 a 7 7 0 0 1 1 0 a 4 4 0 0 0 1 0 l 2 1 h 3 a 4 4 0 0 1 -1 1 h 1 a 5 5 0 0 1 3 0 l 1 -1 h -1 c 1 -1 1 -2 38.154 -6.149 c 1 0 3 0 3 -2 a 1 1 0 0 1 1 0 l 2 -1 l 2 -1 a 1 1 0 0 1 1 -1 l 1 1 a 4 4 0 0 1 1 0 l 2 -1 a 3 3 0 0 0 1 0 l 2 -1 h 1 l 2 1 a 4 4 0 0 0 1 0 h 2 a 18 18 0 0 1 3 -2 a 4 4 0 0 1 2 0 h 1 l 4 -1 a 3 3 0 0 0 1 0 l 2 -1 h 2 a 1 1 0 0 0 1 0 l 1 -1 a 5 5 0 0 0 1 0 l 2 -1 v 2 h 1 a 3 3 0 0 1 1 0 l 1 1 l 1 -1 l 1 1 l 1 2 v 1 l 1 -1 a 3 3 0 0 1 1 0 a 5 5 0 0 0 1 0 h 1 a 2 2 0 0 0 2 1 a 14 14 0 0 1 2 0 v 2 h 1 l 1 1 l 1 -1 a 6 6 0 0 1 1 0 a 6 6 0 0 1 0 1 h -1 l 2 1 v 2 l 2 -1 v 1 a 5 5 0 0 1 1 0 h 2 v 1 l 3 -1 l -1 1 l 2 1 a 1 1 0 0 0 1 0 h 4 l -1 1 h 4 v 1 h 1 a 7 7 0 0 0 1 0 l 2 1 a 8 8 0 0 0 1 0 l 1 -1 l 2 1 l 2 1 a 7 7 0 0 0 2 1 h 2 a 9 9 0 0 1 3 1 l 1 2 a 5 5 0 0 0 1 -1 l 1 -1 l 2 2 l -2 2 v 1 h -1 v 1 a 1 1 0 0 1 0 1 v 4 l 1 -1 l -1 1 h 2 v 1 h 2 l 1 2 a 2 2 0 0 0 0 1 a 1 1 0 0 0 1 0 a 5 5 0 0 0 2 -1 v -1 a 2 2 0 0 1 1 1 a 3 3 0 0 1 -1 1 l 2 -1 v 1 h 2 a 4 4 0 0 1 -1 1 a 6 6 0 0 1 -1 0 l 1 1 c -1 1 -2 2 -1 3 a 12 12 0 0 1 1 1 v 1 a 14 14 0 0 0 -1 2 l 1 2 a 10 10 0 0 0 0 1 a 1 1 0 0 1 0 1 h -2 v 1 l 1 1 l 1 1 l -2 2 l 1 -1 h 1 l -1 1 v 1 l -3 3 a 3 3 0 0 1 2 -1 v 4 l -1 1 l -1 2 a 7 7 0 0 0 -1 1 a 5 5 0 0 0 1 0 v 1 a 1 1 0 0 1 0 1 l -1 3 a 5 5 0 0 1 0 1 a 13 13 0 0 0 -2 2 v 2 a 2 2 0 0 1 -1 0 a 2 2 0 0 0 -2 2 l -1 2 v 1 a 3 3 0 0 0 1 -1 l 1 -1 l 1 2 l 1 1 l 1 1 v 1 l -1 1 v 1 l -1 1 v 1 l -1 1 v -2 h -1 v 1 l -1 1 a 1 1 0 0 0 0 1 l -1 1 v 1 h -1 h 1 l -3 2 l -1 2 l -1 1 a 5 5 0 0 0 -3 1 a 5 5 0 0 0 -1 1 v 1 l -1 1 v 2 l -3 2 a 10 10 0 0 1 -1 0 a 6 6 0 0 1 -3 0 l -1 1 l -1 1 l -1 1 l -2 1 v 1 h -1 a 4 4 0 0 1 -2 1 l -1 1 h -1 a 3 3 0 0 0 0 -1 a 3 3 0 0 0 -3 1 h 1 a 4 4 0 0 1 -1 1 a 2 2 0 0 1 -1 0 l -2 1 l -1 1 l -1 1 l -2 2 a 2 2 0 0 0 0 1 h -2 l -1 1 a 2 2 0 0 1 -3 0 a 7 7 0 0 1 0 -1 l -1 1 h -2 a 2 2 0 0 1 -2 0 h -1 a 10 10 0 0 1 -2 0 a 9 9 0 0 0 -2 -1 l -2 1 a 13 13 0 0 1 -1 0 h -2 a 1 1 0 0 0 -1 -1 a 1 1 0 0 1 -2 0 a 5 5 0 0 0 -1 -1 h -1 v -1 a 2 2 0 0 0 -1 0 h -1 l -2 -1 a 1 1 0 0 0 -1 0 h -2 a 2 2 0 0 1 -2 1 l -1 -1 a 8 8 0 0 1 -1 0 a 7 7 0 0 1 -1 0 a 4 4 0 0 1 -1 1 h -1 a 3 3 0 0 0 -1 0 l -2 -1 l -6 3 l -1 -1 a 4 4 0 0 1 -3 1 h -2 a 11 11 0 0 1 -2 0 l -2 -1 h -3 v -1 l -1 -1 a 21 21 0 0 1 -3 -2 l -1 -1 h -2 c -1 -1 -1 -2 -3 -2 v -1 h -5 a 1 1 0 0 0 -1 0 l -1 -1 a 3 3 0 0 0 -1 0 a 23 23 0 0 0 -2 -1 a 10 10 0 0 1 -2 0 l -1 -1 a 1 1 0 0 1 -1 0 l -1 -1 h -2 v -1 l -1 -1 l -1 -2 v -1 a 7 7 0 0 1 -1 -1 l -1 -2 a 11 11 0 0 0 -1 -1 s -1 0 0 0 l -1 -1 h -1 Z" fill="#000000"/>
</svg>