<svg xmlns="http://www.w3.org/2000/svg" width="905" height="592"><path fill="rgba(255,255,255,0)" d="M0 0h905v592H0Z" data-name="패스 4"/><path d="m257 397 2-2h-5l-3-3-5-4a5 5 0 0 0-2-1 4 4 0 0 1-2-5l-4-2a3 3 0 0 1-1-1c0-1-1-2-3-1h-2l1-1a18 18 0 0 0 1-2l1-2 1 1 6-3-4-2-2 3-5-1 1-2-1 1a9 9 0 0 0 0-2l-4-5-1-8 1-1 1-1a10 10 0 0 0-2-2l1-2-2 1 2-5-3 2v-1l2-1v-1c-2 1-4 2-7 0l-2-4a5 5 0 0 1 1-6l-3-2 3-3h-4l2-4a12 12 0 0 1-2 0c-1-1-2-2-1-3 2-3 2-4-1-7a6 6 0 0 1 0-2l-1-1c-3-2-1-5-1-8h-2a7 7 0 0 1 0-1l2-7a1 1 0 0 0 0-1c-2 0-2-1-1-2s3-3 0-4a5 5 0 0 1 1-3l4-5h-3l3-3c3 0 4-3 3-6a21 21 0 0 1 0-3c-1-1-2-4-1-5l5-6-1-2v-3a3 3 0 0 1 0-1 26 26 0 0 1 0-5c0-2-1-4 2-6 1 0 2-1 0-2l-2-2a31 31 0 0 0 3-4l-2-2v-1l-2-1 3-6a1 1 0 0 0 0-1l-1-8-1-5c1-3 0-3-2-5-2-1-2-3-2-5l-3-1 5-4-4-1 3-4c0-1 2-2-1-4h1a62 62 0 0 1 7-1c3 0 4-2 6-4l2-3 3-2v-3c-2-1-1-1 1-1l9-5 2 1 3-7 3 1a26 26 0 0 1 2-2l8-4c2-2 6-2 9-3h1c2 3 3 3 7 1h1a4 4 0 0 1 2 0l1 2c4 0 6-3 8-6l-1-1c3 0 7 1 9-2a9 9 0 0 0 1 1 17 17 0 0 0 2 2h1c2 2 5 2 7 2 3 1 5 1 7 3s5 2 8 1a20 20 0 0 1 5 1 13 13 0 0 0 3 0c2 0 3 0 4 2l1 1 7 1 1 1a13 13 0 0 1-1 2h3l8-1c2 0 3-1 3-3l-4 2v-1c2-2 3-6 8-5a2 2 0 0 0 1 0c3-3 8-2 9-6a3 3 0 0 1 2-1l7-4c2-1 2-3 5-2l1-1a3 3 0 0 1 4-1c3 0 3-1 1 2a12 12 0 0 1 3 0 9 9 0 0 1 2 1l4-4h3c2 0 5 0 6-2h4l6 3h3c1 1 4 1 6-1l8-5h7l3-1c3-3 6-3 10-3a8 8 0 0 0 2 0l8-2h5a3 3 0 0 0 2-2l4-1a15 15 0 0 0 3-1l4-1c-1 2 1 3 3 3s3 0 3 2a9 9 0 0 1 3 0l2 2 4-3v3c4 1 4 3 3 6l1 2 4-2a8 8 0 0 1 2 0 13 13 0 0 0 3 0c3-1 4-1 4 1 1 1 3 3 5 3a41 41 0 0 1 4 0l1 5h4c1 1 4 0 3 3l3-2a18 18 0 0 1 2-1 18 18 0 0 1 0 2l-1 2c3-1 3-1 4 1l1 8 4-3 3 2a14 14 0 0 1 3 0c1 0 2-2 2 1l3-2v3l8-3v1l-3 3c2 1 4 3 7 3a4 4 0 0 0 3 0h6l4 1-1 1h10c0 1-2 3 2 2l2 3a21 21 0 0 0 2-1c3-1 4 0 5 2a24 24 0 0 0 3-1c1-1 2-2 3-1h2c3-1 4 0 5 2 2 0 4 0 6 2l4 3 1 1a4 4 0 0 0 2 1h5l7 4c1 1 1 3 4 3l3-2 4-2c-1 3 0 4 4 4-2 2-4 4-4 6l-1 2a6 6 0 0 1-1 3l-1-1c-1 1-2 1-1 3a2 2 0 0 1 0 2c-2 3-2 4 1 6l-2 5h4l-2 3 4-2v4h7c-1 3 1 5 4 5a5 5 0 0 0-1 2l1 2h3a15 15 0 0 0 4-5h2a6 6 0 0 1 1 2 9 9 0 0 1-1 2l5-4h1l-2 5h1l1-1 5 1a11 11 0 0 1-2 1 16 16 0 0 1-3 1l1 2a8 8 0 0 0 0 1c-2 3-6 5-4 10a35 35 0 0 1 5 1c2 1 2 2 1 4a41 41 0 0 0-3 5l-1 1c3 1 1 3 1 4a28 28 0 0 0 1 4 3 3 0 0 1 0 2c-1 1-4 2-6 1l2 3c2 0 2 0 2 2l3 5-7 4v1l5-2h1l-3 4 1 1-10 8v1l2-1 3-2c3 0 3 2 3 4l-1 2c2 1 1 2 1 3l-2 3c-1 2-1 3-4 3 3 3 2 5-2 7a20 20 0 0 0-3 2 15 15 0 0 0 3 0c2 0 2 1 2 3a3 3 0 0 1-1 2c-3 2-2 5-2 8l-2 4 1 2-5 4-2 5a5 5 0 0 1-3 1 4 4 0 0 0-4 5c0 2 1 4-3 5l-1 3 1 1a10 10 0 0 0 2-2l3-2c0 3 1 4 4 5l2 3c0 1 0 2 2 2l2 2a5 5 0 0 1-2 3c-1 0-2 1-1 2v1l-3 4-2 3-2 3c-2-3-2-3-1-5h-1l-2 3-2 3a2 2 0 0 0-1 1l2 1c1 1 1 1-2 2l-1 3-4-1-1 1 6 2-10 6c-2 0-3 2-3 3 1 3-1 4-3 4-5-1-7 2-10 4l-3 4h2l-3 3c2 2 2 4 0 6h-1c-1 4-4 5-8 6l-5 2a19 19 0 0 1-6 0c-2-1-5 0-5 2 0 3 0 3-3 3 0 2-3 1-4 4 0 2-3 0-5 2l2 1-3 1a13 13 0 0 1-6 5 6 6 0 0 1-2 0h-2c-1 2-1 2-4 0a9 9 0 0 0 1-1h1a2 2 0 0 0-1-1c-3 0-5 1-7 3l1 1a13 13 0 0 1-2 2 6 6 0 0 1-4 1c-3-1-4-1-4 1l-1 1c-2 0-3 1-3 3 0 3-2 3-4 3 0 3-2 4-4 5a5 5 0 0 0-3 3c0 2-1 3-4 2l-2 1c-3 2-7 3-9 0a20 20 0 0 1-1-2l-4 2c-2 2-4 1-6 2l-4-1c-1-2-2-2-4-1l-6 2-6-3-4 2a38 38 0 0 1-4 1l-5-1c-1-2-3-3-5-2a4 4 0 0 1-5-1l-3-2h-2v-2a5 5 0 0 0-4-1c-1 1-2 1-2-1-3 0-5-3-8-4a2 2 0 0 0-1 0l-5 2c-2 1-5 2-7 1l-4-1v-2a24 24 0 0 1-3 2 19 19 0 0 1-3 0 12 12 0 0 1-2 3h-7c-2 1-5 0-5-3l-18 9-3-3c-2 2-5 3-8 2h-6a32 32 0 0 1-5 0l-7-2h-1l-7-2c1 0 1-2-1-2l-1-1-2-2a63 63 0 0 1-9-5l-1-2a2 2 0 0 0-2-1c-2 1-3 0-4-1-3-2-5-5-10-5l-1-2-13-1c-1-1-3-2-4-1-2 1-3 0-4-1a9 9 0 0 0-2-3 67 67 0 0 0-6-2 29 29 0 0 1-6 2l-2-3c-2 0-3 0-4-2l-2-1h-5l-1-3a12 12 0 0 0-1-2l-2-2-2-6-2-4a21 21 0 0 1-1-2v-1c-3-1-3-3-4-5a31 31 0 0 0-3-2l-1-1c1-2-1-3-3-3h-1Z" data-name="패스 1"/><path d="m452 136 3 1-2 1a8 8 0 0 1-2-1l1-1Z" data-name="패스 2"/></svg>