<?xml version="1.0" encoding="utf-8"?>
<!-- Generator: Adobe Illustrator 25.4.4, SVG Export Plug-In . SVG Version: 6.00 Build 0)  -->
<svg version="1.1" id="Layer_1" xmlns="http://www.w3.org/2000/svg" xmlns:xlink="http://www.w3.org/1999/xlink" x="0px" y="0px"
	 viewBox="0 0 905 592" style="enable-background:new 0 0 905 592;" xml:space="preserve">
<path d="M361.7,255.6l1.2-1.2h-2.4l-1.2-1.2l-2.4-1.2c-0.7,0.3-1.5,0.1-1.8-0.6c-0.3-0.7-0.1-1.5,0.6-1.8l-1.2-1.2
	c-0.4,0.2-0.8,0.2-1.2,0c0-0.7-0.5-1.2-1.2-1.2c0-0.4,0-0.8,0-1.2l1.2-1.2v1.2l2.4-1.2l-1.2-1.2l-1.2,1.2H351l1.2-1.2l-1.2,1.2
	c0.1-0.4,0.1-0.8,0-1.2l-1.2-2.4v-3.6c0-0.4,0-0.8,0-1.2h-1.2l1.2-2.4l-1.2,1.2l1.2-1.2h-3.6v-2.4c-0.4-0.7-0.4-1.6,0-2.4H345
	l1.2-1.2h-2.4l1.2-2.4c-0.4,0-0.8,0-1.2,0v-3.6c-0.1-0.4-0.1-0.8,0-1.2c-2.4-1.2-1.2-2.4-1.2-3.6v-6c-0.1-0.4-0.1-0.8,0-1.2l2.4-2.4
	h-1.2v-1.2c1.3,0,2.4-1.1,2.4-2.4c-0.4-0.4-0.8-0.8-1.2-1.2c-0.4-0.7-0.4-1.6,0-2.4l2.4-1.2v-1.2l-1.2-1.2c-0.2-0.4-0.2-0.8,0-1.2
	c0.4-0.4,0.8-0.8,1.2-1.2v-3.6l-1.2-1.2c0.4-0.4,0.8-0.8,1.2-1.2v-1.2l-1.2-1.2l1.2-1.2v-3.6c-0.3-0.8-0.3-1.6,0-2.4l-1.2-2.4
	c-0.8-0.5-1.3-1.4-1.2-2.4h-1.2l2.4-1.2l-1.2-1.2c0.4-0.3,0.8-0.7,1.2-1.2l-1.2-1.2c1.2-0.5,2.4-0.9,3.6-1.2
	c0.9-0.2,1.7-0.6,2.4-1.2l1.2-1.2v-1.2l1.2-1.2c-1.2,0-1.2,0,0,0l3.6-2.4l1.2,1.2l1.2-3.6l1.2,1.2c0-0.4,0-0.8,0-1.2
	c1.2-0.2,2.4-0.6,3.6-1.2l3.6-2.4c0.4-0.2,0.8-0.2,1.2,0c0,2.4,0,2.4,2.4,1.2c0.4-0.2,0.8-0.2,1.2,0l3.6-1.2v-1.2l3.6-1.2
	c-0.1,0.4-0.1,0.8,0,1.2c0.4,0,0.8,0,1.2,0l2.4,1.2c1.3-0.1,2.6,0.3,3.6,1.2c1,0.9,2.3,1.3,3.6,1.2c0.4,0,0.8,0,1.2,0
	c0.4,0,0.8,0,1.2,0l2.4,1.2h3.6c-0.3,0.5-0.7,0.9-1.2,1.2h1.2c1.2-0.4,2.4-0.4,3.6,0l1.2-1.2h-1.2c1.2-1.2,1.2-2.4,3.6-2.4
	c1.2,0,3.6,0,3.6-2.4c0.4-0.2,0.8-0.2,1.2,0l2.4-1.2l2.4-1.2c0-0.7,0.5-1.2,1.2-1.2l1.2,1.2c0.4,0,0.8,0,1.2,0l2.4-1.2
	c0.4,0.1,0.8,0.1,1.2,0l2.4-1.2h1.2l2.4,1.2c0.4,0,0.8,0,1.2,0h2.4c1.1-0.9,2.3-1.7,3.6-2.4c0.8-0.2,1.6-0.2,2.4,0h1.2l4.8-1.2
	c0.4,0.1,0.8,0.1,1.2,0l2.4-1.2h2.4c0.4,0.2,0.8,0.2,1.2,0l1.2-1.2c0.4,0,0.8,0,1.2,0l2.4-1.2v2.4h1.2c0.4-0.1,0.8-0.1,1.2,0
	l1.2,1.2l1.2-1.2l1.2,1.2l1.2,2.4v1.2l1.2-1.2c0.4-0.1,0.8-0.1,1.2,0c0.4,0,0.8,0,1.2,0h1.2c0.5,0.8,1.4,1.3,2.4,1.2
	c0.8-0.1,1.6-0.1,2.4,0v2.4h1.2l1.2,1.2l1.2-1.2c0.4,0,0.8,0,1.2,0c0,0.4,0,0.8,0,1.2h-1.2l2.4,1.2v2.4l2.4-1.2v1.2
	c0.4,0,0.8,0,1.2,0h2.4v1.2l3.6-1.2l-1.2,1.2l2.4,1.2c0.4,0.2,0.8,0.2,1.2,0h4.8l-1.2,1.2h4.8v1.2h1.2c0.4,0,0.8,0,1.2,0l2.4,1.2
	c0.4,0,0.8,0,1.2,0l1.2-1.2l2.4,1.2l2.4,1.2c0.7,0.5,1.5,0.9,2.4,1.2h2.4c1.3,0.2,2.5,0.6,3.6,1.2l1.2,2.4c0.5-0.3,0.9-0.7,1.2-1.2
	l1.2-1.2l2.4,2.4l-2.4,2.4v1.2h-1.2v1.2c0.2,0.4,0.2,0.8,0,1.2v4.8l1.2-1.2l-1.2,1.2h2.4v1.2h2.4l1.2,2.4c-0.1,0.4-0.1,0.8,0,1.2
	c0.4,0.2,0.8,0.2,1.2,0c0.9-0.2,1.7-0.6,2.4-1.2V183c0.5,0.2,1,0.7,1.2,1.2c-0.3,0.5-0.7,0.9-1.2,1.2l2.4-1.2v1.2h2.4
	c-0.3,0.5-0.7,0.9-1.2,1.2c-0.4,0-0.8,0-1.2,0l1.2,1.2c-1.2,1.2-2.4,2.4-1.2,3.6c0.4,0.4,0.8,0.8,1.2,1.2v1.2
	c-0.5,0.8-0.9,1.6-1.2,2.4l1.2,2.4c0,0.4,0,0.8,0,1.2c0.2,0.4,0.2,0.8,0,1.2h-2.4v1.2l1.2,1.2l1.2,1.2l-2.4,2.4l1.2-1.2h1.2
	l-1.2,1.2v1.2l-3.6,3.6c0.6-0.7,1.5-1.1,2.4-1.2v4.8l-1.2,1.2l-1.2,2.4c-0.4,0.4-0.8,0.8-1.2,1.2c0.4,0,0.8,0,1.2,0v1.2
	c0.2,0.4,0.2,0.8,0,1.2l-1.2,3.6c0,0.4,0,0.8,0,1.2c-0.9,0.7-1.7,1.5-2.4,2.4v2.4c-0.4,0.1-0.8,0.1-1.2,0c-1.3,0-2.4,1.1-2.4,2.4
	l-1.2,2.4v1.2c0.5-0.3,0.9-0.7,1.2-1.2l1.2-1.2l1.2,2.4l1.2,1.2l1.2,1.2v1.2l-1.2,1.2v1.2l-1.2,1.2v1.2l-1.2,1.2v-2.4h-1.2v1.2
	l-1.2,1.2c-0.2,0.4-0.2,0.8,0,1.2l-1.2,1.2v1.2h-1.2h1.2l-3.6,2.4l-1.2,2.4l-1.2,1.2c-1.3,0-2.5,0.4-3.6,1.2
	c-0.5,0.3-0.9,0.7-1.2,1.2v1.2l-1.2,1.2v2.4l-3.6,2.4c-0.4,0-0.8,0-1.2,0c-1.2,0.3-2.4,0.3-3.6,0l-1.2,1.2l-1.2,1.2l-1.2,1.2
	l-2.4,1.2v1.2h-1.2c-0.7,0.6-1.5,1-2.4,1.2l-1.2,1.2h-1.2c0.1-0.4,0.1-0.8,0-1.2c-1.3-0.3-2.7,0.1-3.6,1.2h1.2
	c-0.3,0.5-0.7,0.9-1.2,1.2c-0.4,0.1-0.8,0.1-1.2,0l-2.4,1.2l-1.2,1.2l-1.2,1.2l-2.4,2.4c-0.1,0.4-0.1,0.8,0,1.2h-2.4l-1.2,1.2
	c-0.9,1-2.4,1.1-3.4,0.2c-0.1-0.1-0.1-0.1-0.2-0.2c0-0.4,0-0.8,0-1.2l-1.2,1.2h-2.4c-0.7,0.4-1.6,0.4-2.4,0h-1.2
	c-0.8,0.1-1.6,0.1-2.4,0c-0.7-0.5-1.5-0.9-2.4-1.2l-2.4,1.2c-0.4,0-0.8,0-1.2,0h-2.4c0-0.7-0.5-1.2-1.2-1.2c0,0.7-0.5,1.2-1.2,1.2
	s-1.2-0.5-1.2-1.2c-0.3-0.5-0.7-0.9-1.2-1.2H445v-1.2c-0.4-0.1-0.8-0.1-1.2,0h-1.2l-2.4-1.2c-0.4-0.2-0.8-0.2-1.2,0h-2.4
	c-0.5,0.8-1.4,1.3-2.4,1.2l-1.2-1.2c-0.4,0-0.8,0-1.2,0c-0.4,0-0.8,0-1.2,0c-0.3,0.5-0.7,0.9-1.2,1.2h-1.2c-0.4-0.1-0.8-0.1-1.2,0
	l-2.4-1.2l-7.1,3.6l-1.2-1.2c-1,0.9-2.3,1.3-3.6,1.2h-2.4c-0.8,0.1-1.6,0.1-2.4,0l-2.4-1.2h-3.6v-1.2l-1.2-1.2
	c-1.3-0.7-2.5-1.5-3.6-2.4l-1.2-1.2h-2.4c-1.2-1.2-1.2-2.4-3.6-2.4v-1.2h-6c-0.4-0.2-0.8-0.2-1.2,0l-1.2-1.2c-0.4-0.1-0.8-0.1-1.2,0
	c-0.8-0.4-1.6-0.8-2.4-1.2c-0.8,0.1-1.6,0.1-2.4,0l-1.2-1.2c-0.4,0.2-0.8,0.2-1.2,0l-1.2-1.2H370v-1.2l-1.2-1.2l-1.2-2.4v-1.2
	c-0.4-0.4-0.8-0.8-1.2-1.2l-1.2-2.4c-0.4-0.4-0.8-0.8-1.2-1.2c0,0-1.2,0,0,0l-1.2-1.2H361.7z"/>
</svg>
