<svg id="size_2" xmlns="http://www.w3.org/2000/svg" width="905" height="592" viewBox="0 0 905 592">
  <path id="패스_4" data-name="패스 4" d="M0,0H905V592H0Z" fill="rgba(255,255,255,0)"/>
  <g id="ink" transform="translate(-149.238 -32.66)">
    <path id="패스_1" data-name="패스 1" d="M406.683,429.392c.3-.581.591-1.157,1.075-2.107-1.641.132-2.981.237-4.561.365-1.009-1.02-2.247-2.283-3.251-3.3-1.687-1.249-3.124-2.353-4.617-3.4a4.577,4.577,0,0,0-1.7-.8,3.539,3.539,0,0,1-2.155-5.819c-1.366-.633-2.67-1.2-3.924-1.838a2.622,2.622,0,0,1-.953-.937c-.759-1.205-1.671-1.5-3.1-.712-.459.255-1.243.07-1.875.088.275-.51.54-1.02.825-1.526a17.79,17.79,0,0,0,.922-1.64c.316-.748.525-1.53.876-2.595l.907,1.016,5.85-2.907c-1.549-.519-2.685-.9-4.046-1.359-.642.721-1.35,1.513-2,2.243-1.35-.255-2.655-.506-4.24-.8.24-.506.5-1.056.764-1.605-.255.237-.5.475-.759.712a9.229,9.229,0,0,0-.785-1.742c-1.116-1.575-2.313-3.109-3.48-4.653-.224-.3-.673-.563-.693-.866-.189-2.393-.357-4.794-.382-7.191-.005-.449.673-.9,1.029-1.355s1.116-1.056.983-1.355a10.329,10.329,0,0,0-1.891-2.12c.031-.044.362-.567.907-1.434-.978.334-1.6.55-2.344.8.754-1.451,1.442-2.784,2.38-4.6-1.371.616-2.257,1.012-3.139,1.407-.1-.105-.2-.211-.3-.317.841-.616,1.682-1.236,2.522-1.852-.056-.176-.107-.347-.163-.523-2.2.73-4.387,2.173-6.823-.215-.423-.774-1.2-2.225-2-3.668a4.562,4.562,0,0,1,1.126-6.162l-3.3-2.142c.841-1.056,1.518-1.909,2.431-3.052h-3.913c.739-1.456,1.35-2.665,1.936-3.822a11.62,11.62,0,0,1-1.763-.378c-1.31-.435-1.519-1.223-.831-2.269,2.242-3.448,2.1-4.394-.6-7.424a5.807,5.807,0,0,1-.785-2.208c-.107-.347-.01-.88-.25-1.034-3.261-2.027-.958-4.772-1.411-7.318-.438-.106-1.034-.251-1.656-.4a7.11,7.11,0,0,1,.1-.752c.622-2.247,1.289-4.486,1.84-6.742a1.263,1.263,0,0,0-.627-1.069c-1.264-.686-1.442-1.166-.5-2.4.887-1.166,3.312-2.876-.056-4.3a4.879,4.879,0,0,1,.856-2.458c1.31-1.742,2.828-3.364,4.413-5.207-.882.079-1.6.145-2.319.211-.183-.15-.367-.295-.55-.444.846-.8,1.534-2.027,2.568-2.313,2.813-.77,3.908-3.65,3-6.368a20.534,20.534,0,0,1-.489-3.228c-.749-.563-1.473-3.875-.611-4.943,1.519-1.878,3.241-3.646,4.6-5.6.418-.6-.056-1.667-.1-2.239-.3-1.385-.5-2.353-.708-3.32a2.721,2.721,0,0,1-.153-.642,26.433,26.433,0,0,1,.4-4.891c.52-2.032-.673-4.6,2.41-5.959.53-.233,1.162-1.315-.428-1.988-1.029-.435-1.58-1.711-2.15-2.384a30.73,30.73,0,0,0,2.762-3.729c.127-.233-1.106-1.034-1.972-1.8.051-.075.459-.651.887-1.267-.943-.519-1.845-1.012-2.879-1.579,1.223-1.966,2.375-3.778,3.465-5.621a1.369,1.369,0,0,0,.092-1.051c-.825-2.454-.26-5.018-1.192-7.565-.586-1.6-1.085-4.042-.642-5.432.795-2.472-.311-3.277-2.155-4.372-2.288-1.35-2.262-3.417-1.829-5.5-1.121-.321-2.115-.607-3.547-1.016,1.819-1.5,3.368-2.766,5.024-4.13-1.269-.29-2.232-.51-3.455-.792,1.121-1.557,2.293-2.674,2.747-3.98.382-1.091,2.237-2.45-.775-3.606l.673-.435a61.679,61.679,0,0,1,6.655-1.174c2.9-.215,4.5-1.992,6.283-3.505,1.111-.941,2.558-1.83,2.242-3.633-.066-.361,1.5-1.012,2.385-1.412,1.763-.8,1.941-1.764.459-2.867-1.636-1.214-.932-1.267.688-1.808,3.261-1.1,6.314-2.656,9.743-4.152,0,0,.494.224,1.417.638,1.019-2.344,1.977-4.539,3.042-6.975.5.189,1.544.572,2.741,1.02a26.482,26.482,0,0,1,2.487-1.658c2.548-1.359,5.656-2.247,7.6-4.073,2.69-2.533,6.135-2.577,9.386-3.43.234-.062.459-.154.668-.224a1.778,1.778,0,0,1,.423.295c2.232,3.233,2.517,3.294,6.421,1.271.51-.264.958-.752,1.483-.818a3.525,3.525,0,0,1,2.232.277c.4.325.194,1.218.25,1.794,4.5.6,6.191-2.643,8.444-5.207-.311-.453-.657-.954-1.09-1.583,3.338-.066,6.859,1.5,9.086-2.063a9.383,9.383,0,0,0,1.182,1.6,16.931,16.931,0,0,0,2.227,1.531c.255.154.815.075.927.246,1.488,2.331,4.362,1.816,6.65,2.309,2.553.55,4.973.413,7.2,2.511,1.727,1.632,5.243,1.83,8.27,1.561a19.756,19.756,0,0,1,4.189.4,13.081,13.081,0,0,0,2.966.466c1.957-.237,3.755-.62,4.066,1.83.036.3.7.7,1.147.774,2.466.413,4.958.743,7.633,1.13.02.2.194.581.066.871a13.02,13.02,0,0,1-1,1.667c1.223.317,2.925,1.24,3.587.849,2.64-1.557,5.493-1.368,8.342-1.333,1.88.022,2.482-.831,2.981-2.841l-4.367,1.258c-.1-.211-.581-.88-.453-.981,2.446-1.909,3.842-5.33,8.321-4.416a1.941,1.941,0,0,0,1.437-.312c2.512-2.538,7.378-2.327,9.091-5.841a2.713,2.713,0,0,1,1.8-1.1c3.119-.44,4.449-2.938,6.747-4.31,1.585-.946,2.334-3.061,5-1.816.25.119,1.116-.378,1.406-.756a3.208,3.208,0,0,1,3.572-1.5c2.889.347,2.95-.031,1.432,2.824a12.411,12.411,0,0,1,2.487-.295,9.3,9.3,0,0,1,2.14.792c1.208-1.315,2.568-2.8,3.929-4.288.087.229.173.453.255.682,1.075.11,2.273.537,3.205.268,2.008-.581,4.408-.488,5.7-2.63.3-.493,2.894-.33,4.184.092,2.054.669,3.847,1.918,5.87,2.7.82.317,1.941.053,3.185.053.744.95,3.71.836,5.651-.523,2.69-1.878,5.187-4.095,8.2-5.44,1.784-.8,4.474-.475,6.63-.11,1.371.233,2.278.264,3.093-.633,2.67-2.942,6.416-2.907,10.2-2.815a7.572,7.572,0,0,0,2.1-.062c2.441-.66,4.8-1.614,7.287-2.08,1.855-.347,3.873.022,5.773-.2a3.045,3.045,0,0,0,2.125-1.4c.591-1.5,1.743-1.755,3.3-1.8a15.2,15.2,0,0,0,3.149-.462c1.35-.33,2.66-.8,4.52-1.363-1.06,2.586.55,3.013,2.222,3.065,2.619.084,2.91.189,3.317,2.533a8.692,8.692,0,0,1,2.777-.616c.668.075,1.233.871,2.3,1.7l3.832-2.278c.076.937.158,1.891.25,3.052,3.669.528,3.807,2.736,3.063,5.471-.168.611.6,1.412.978,2.225,1.381-.611,2.548-1.192,3.776-1.649a7.761,7.761,0,0,1,1.783-.176,13.468,13.468,0,0,0,3.7-.466c2.11-.906,3.134-.673,3.7,1.275.428,1.456,3.175,2.854,5.06,2.762a41,41,0,0,1,4.214.194c.158,1.6.311,3.153.484,4.882,1.412-.576,2.726-1.267,4.26.374.79.844,3.587.172,2.42,3.3,1.595-1.108,2.471-1.794,3.44-2.371a17.542,17.542,0,0,1,2.176-.946,17.56,17.56,0,0,1-.087,2.318c-.046.29-.474.537-1.2,1.306,2.68-1.267,3.516-.453,3.817,1.28.423,2.423.943,4.833,1.544,7.859,1.529-1.157,2.563-1.94,3.771-2.85.81.607,1.794,1.346,2.69,2.014a13.524,13.524,0,0,1,2.91-.559c1,.013,2.675-1.372,2.757,1.029,1.055-.664,1.85-1.161,2.9-1.821-.158,1.2-.285,2.164-.448,3.4,2.721-.95,5.371-1.878,8.021-2.806.056.167.112.339.168.506-1.1,1.135-2.186,2.269-3.266,3.391,2.288,1.077,4.627,2.3,7.093,3.272a3.633,3.633,0,0,0,2.818-.114c2.227-1.808,4.489-.888,6.793-.413.943.193,1.885.391,3.154.655-.372.466-.749.928-.882,1.1h10.518c.138,1.253-2.405,3.668,1.656,2.533.194-.053.907,1.275,1.651,2.353a21.113,21.113,0,0,0,2.619-.532c2.38-.756,3.812-.216,5.228,2.349a23.575,23.575,0,0,0,2.375-1.5c1.1-.888,1.967-2.208,3.618-.519.255.259,1.3.123,1.885-.066,3.19-1.038,3.766-.822,4.642,1.847,2.329-.2,4.479-.6,6.089,1.7.953,1.363,2.884,2.2,4.336,3.32.382.295.525.84.917,1.108a3.548,3.548,0,0,0,1.8.787c1.661-.022,3.312-.251,4.968-.4.876-.084,6.731,3.14,7.175,3.8.887,1.311,1.085,3.461,3.577,3.14,1.259-.158,2.349-1.187,3.557-1.759,1.07-.506,2.191-.928,3.812-1.605-.927,2.731-.326,3.241,3.674,3.971-1.544,2.01-4.2,3.65-3.373,6.016-.494.954-.882,1.561-1.131,2.212A6.325,6.325,0,0,1,801.3,228.6c-.163-.374-.331-.752-.566-1.284-1.151.99-2.12,1.786-1,3.325a2.155,2.155,0,0,1-.27,2.151c-2.227,2.766-2.212,3.47.372,5.735-.433,1.878-.831,3.62-1.259,5.48l4.082-.339c-.932,1.02-1.391,1.522-2.3,2.516,1.462-.519,2.262-.8,3.618-1.284.219,1.4.413,2.634.591,3.751h6.915c-.927,3,.275,4.671,3.516,5.225a5.006,5.006,0,0,0-.408,1.566c.051.756.056,1.887.581,2.164.881.466,1.743.449,3.1-.352a14.784,14.784,0,0,0,4.306-4.319c.255-.334,1.106-.33,1.682-.479a5.893,5.893,0,0,1,.535,1.772,8.656,8.656,0,0,1-.622,2.1c2-1.442,3.6-2.6,5.2-3.756.24.176.474.352.713.528q-.772,2.19-1.549,4.38c.148.062.3.119.443.18.566-.391,1.136-.783,1.722-1.183,1.218.422,2.446.844,4.245,1.469a11.264,11.264,0,0,1-2.11,1.108,16.379,16.379,0,0,1-2.568.233c.341.827.678,1.654,1.029,2.48a7.988,7.988,0,0,0,.423.734c-2.609,2.837-6.533,5.374-4.24,9.68a35.457,35.457,0,0,1,4.53,1.267c2.166.919,2.232,2.269.866,3.98a40.833,40.833,0,0,0-3.1,4.992c-.158.268-.239.831-.076.941,2.079,1.381.887,3.118.866,4.763a28.1,28.1,0,0,0,.652,3.659,3.263,3.263,0,0,1-.173,2.133c-.785,1.122-4.173,1.539-6.11,1.117.627.994,1.259,1.992,1.957,3.105,1.85-.677,2.568-.761,2.446,1.5-.076,1.478,1.921,3.039,3.164,4.811-2.364,1.315-4.948,2.753-7.526,4.191.133.211.265.422.4.633q2.477-.937,4.958-1.878c.188.136.372.277.56.413-.922,1.06-1.845,2.124-2.945,3.391l1.626,1.218-10.589,8.356.168.409c.769-.268,1.554-.506,2.3-.809,1.075-.435,2.12-1.293,3.18-1.3,2.171-.018,3.047,1.68,2.3,3.848-.173.506-.51,1.363-.291,1.509,1.585,1.042.688,2.322.341,3.342-.377,1.121-1.636,2.019-2.049,3.136-.545,1.469-1.187,2.546-3.3,2.3,2.2,3.769,1.559,5.212-2.833,7.186a20.22,20.22,0,0,0-2.889,2.085,14.63,14.63,0,0,0,2.833.5c2.3-.158,2.573.985,2.278,2.5a3.233,3.233,0,0,1-.693,1.856c-2.889,2.4-1.768,5.374-1.936,8.229-.087,1.451-1.177,2.859-1.814,4.288l-.82-.106c.448.449.892.9,1.406,1.416-1.758,1.469-3.761,2.74-5.121,4.407-1.06,1.3-1.106,3.189-2.013,4.622a4.7,4.7,0,0,1-2.848,1.834,4.485,4.485,0,0,0-4.071,4.253c-.041,2.186.657,4.829-3.134,5.678-.561.128-.851,1.491-1.034,2.322-.056.255.805.972.994.906a10.079,10.079,0,0,0,2.314-1.17c.938-.62,1.794-1.333,3.195-2.384-.4,3.052,1.116,4.011,3.664,4.7,1.024.277,1.967,2.049,2.089,3.211.148,1.377.4,2.08,2.049,2.485.968.237,2.5,1.306,2.395,1.733a5.174,5.174,0,0,1-2.166,2.665c-1.085.717-2.2,1.122-1.33,2.546.173.281-.041.84-.255,1.183-.8,1.28-1.641,2.546-2.533,3.778-.678.932-1.5,1.786-2.2,2.714s-1.294,1.913-1.865,2.771c-2.3-2.6-2.3-2.6-1.213-4.578-.183-.114-.362-.229-.545-.347-.831,1.051-1.636,2.12-2.5,3.149-.744.893-1.651,1.693-2.3,2.63a2.063,2.063,0,0,0-.316,1.8c.158.339,1.177.378,2.232.664.285.954.285.954-2.742,1.469-.357,1.315-.642,2.362-.887,3.255-1.488-.158-2.818-.295-4.148-.435-.1.237-.2.471-.306.708,1.554.6,3.108,1.2,5.284,2.036-3.531,1.891-6.966,3.5-10.069,5.493-1.33.853-3.032,2.736-2.731,3.734.759,2.5-1.034,3.211-2.7,3.167-4.658-.123-7.593,2.274-10.5,4.732-1.019.862-1.513,2.19-2.359,3.474l1.936.708c-1.07,1.042-2.094,2.041-3.124,3.048,2.115,1.847,2.018,3.32-.479,5.146-.127.092-.336.172-.367.286-.978,3.756-4.688,4.618-8.133,5.841-1.646.581-3.062,1.873-4.729,2.124a18.654,18.654,0,0,1-6.589-.259c-2.212-.484-4.515.686-4.418,2.744.117,2.511-.082,2.67-3.164,2.432.163,2.269-3.649,1.526-3.8,3.941-.163,2.582-3.832.559-4.933,2.494.494.255.994.51,1.493.765.015.172.036.348.051.519l-3.22.413a12.954,12.954,0,0,1-6.038,5.04,6.247,6.247,0,0,1-1.845.035c-.5.026-1.223-.044-1.457.2-1.845,1.935-1.819,1.957-4.245.075a8.674,8.674,0,0,0,1.065-.862c.189-.211.387-.66.275-.77a1.6,1.6,0,0,0-.968-.3c-2.711-.114-4.867.968-7.047,2.736.678.29,1.325.567,1.8.774a12.618,12.618,0,0,1-2.823,2.2,6.467,6.467,0,0,1-3.8.51c-2.522-.717-3.409-.462-4.066,1.918-.061.211-.122.422-.229.778-2.283.075-3.113,1.1-3.149,3.171-.036,2.151-1.962,3.026-4.5,2.894.382,2.819-1.722,3.611-4.092,4.534a5.16,5.16,0,0,0-2.41,2.916c-.693,1.825-1.34,3.079-4.046,2.357-.667-.18-1.809.589-2.568,1.1-2.843,1.913-6.818,2.406-8.948-.128a19.9,19.9,0,0,1-1.157-1.7c-1.167.449-2.879.651-3.633,1.491-1.646,1.834-3.9,1.491-5.942,1.667-1.218.106-3.078-.237-3.694-.976-1.529-1.83-2.69-1.742-4.668-.545-1.417.858-3.327,1.108-5.6,1.812-1.493-.664-3.542-2-5.824-2.423-1.253-.233-2.894,1.064-4.229,1.812a38.024,38.024,0,0,1-4.219.849c-1.789.167-3.654.4-4.973-1.218-1.223-1.5-2.543-2.524-5.07-1.465a3.608,3.608,0,0,1-4.245-1.069c-.683-.866-2.135-1.28-3.766-2.195-.117.022-.983.167-1.468.246-.112-1.073.158-2.432-.377-2.74a5.074,5.074,0,0,0-3.389-.286c-1.366.374-2.436.985-2.64-.884-3.271-.559-4.627-3.439-7.429-4.543a2.126,2.126,0,0,0-1.605.264c-2.492,1.8-2.471,1.825-5.208,1.39-1.228,1.632-4.632,2.287-6.956,1.377-.953-.374-1.947-.664-3.108-1.06v-1.733a24.42,24.42,0,0,1-3.017,1.649,19.224,19.224,0,0,1-3,.629,12.059,12.059,0,0,1-2.65,2.423c-.688.361-1.931-.079-2.925-.15-1.172-.079-2.533-.519-3.475-.154-2.706,1.056-5.019.088-5.294-2.217-5.962,2.806-12.026,5.66-18.258,8.589-.785-.783-1.631-1.618-2.7-2.678-2.1,1.966-4.917,2.256-7.791,2.208-1.039-.018-2.059-.563-3.113-.682-1.172-.132-2.375-.035-3.562-.057a31.611,31.611,0,0,1-4.484-.15c-2.288-.374-4.52-1.012-6.787-1.5-.479-.106-1.029.013-1.508-.092-2.252-.5-4.489-1.038-6.731-1.561.764-.906.408-1.966-1.325-2.67-.209-.084-.494-.308-.484-.457.107-1.715-1.248-1.9-2.736-2.494a62.547,62.547,0,0,1-8.668-4.539c-.739-.44-.826-1.627-1.447-2.313a2.464,2.464,0,0,0-1.834-.792c-1.7.589-2.318,0-3.715-.985-2.843-2-5.014-5.247-9.5-5.172-.433.009-.892-1.073-1.5-1.856l-13.279-1.016c-.545-1.61-2.257-2.217-4.117-1.2-1.661.906-2.375.158-3.2-.941a8.533,8.533,0,0,0-2.5-2.621,66.508,66.508,0,0,0-6.166-2.643,28.559,28.559,0,0,1-5.483,1.988c-.622.1-1.575-1.359-2.716-2.432-1.147.132-2.777.1-3.348-1.992-.158-.576-1.4-.928-2.293-1.482-1.447,1.61-3.215.8-4.6-.088-.693-.444-.622-1.72-1.019-2.573a12.058,12.058,0,0,0-1.32-2.085c-.454-.6-1.223-1.064-1.5-1.7-.866-2-1.488-4.081-2.359-6.078-.591-1.355-1.483-2.6-2.155-3.932a21.455,21.455,0,0,1-.892-2.414c-.122-.334-.143-.884-.382-.972-2.39-.862-2.747-3.013-4.071-4.552a31.358,31.358,0,0,0-2.624-2.036c-.474-.44-1.07-1.161-.948-1.627.576-2.208-1.238-2.283-2.843-2.621C407.187,429.753,406.994,429.572,406.683,429.392Z" transform="translate(0 0)"/>
    <path id="패스_2" data-name="패스 2" d="M834.187,184.91l2.982.963c.044.207.088.413.136.62-.576.172-1.227.594-1.711.453a7.741,7.741,0,0,1-1.944-1.253C833.826,185.433,834.006,185.174,834.187,184.91Z" transform="translate(-233.207 -16.487)"/>
  </g>
</svg>
