<svg id="size_1" xmlns="http://www.w3.org/2000/svg" width="905" height="592" viewBox="0 0 905 592">
  
    <path id="패스_1" data-name="패스 1" d="M374.262,248.723l.366-.717-1.552.124c-.343-.347-.765-.777-1.107-1.123-.574-.425-1.063-.8-1.572-1.157a1.558,1.558,0,0,0-.579-.274,1.2,1.2,0,0,1-.734-1.981c-.465-.216-.909-.407-1.336-.626a.893.893,0,0,1-.324-.319.682.682,0,0,0-1.056-.243c-.156.087-.423.024-.638.03.094-.174.184-.347.281-.52a6.051,6.051,0,0,0,.314-.558c.108-.255.179-.521.3-.883l.309.346,1.991-.99-1.377-.463-.682.764-1.443-.274c.082-.172.17-.359.26-.546l-.258.243a3.138,3.138,0,0,0-.267-.593c-.38-.536-.788-1.058-1.185-1.584-.076-.1-.229-.192-.236-.295-.064-.814-.121-1.632-.13-2.448,0-.153.229-.305.35-.461s.38-.359.335-.461a3.516,3.516,0,0,0-.644-.722c.01-.015.123-.193.309-.488-.333.114-.545.187-.8.272.257-.494.491-.948.81-1.564l-1.069.479-.1-.108.859-.63c-.019-.06-.036-.118-.056-.178-.749.249-1.494.74-2.323-.073-.144-.264-.408-.758-.68-1.249a1.553,1.553,0,0,1,.383-2.1l-1.122-.729.827-1.039h-1.332l.659-1.3a3.958,3.958,0,0,1-.6-.129c-.446-.148-.517-.416-.283-.773.763-1.174.716-1.5-.2-2.527a1.977,1.977,0,0,1-.267-.752c-.036-.118,0-.3-.085-.352-1.11-.69-.326-1.624-.48-2.491l-.564-.138a2.425,2.425,0,0,1,.035-.256c.212-.765.439-1.527.626-2.3a.43.43,0,0,0-.213-.364c-.43-.234-.491-.4-.17-.817.3-.4,1.128-.979-.019-1.464a1.661,1.661,0,0,1,.291-.837c.446-.593.963-1.145,1.5-1.773l-.789.072-.187-.151c.288-.272.522-.69.874-.787a1.608,1.608,0,0,0,1.022-2.168,6.989,6.989,0,0,1-.167-1.1,1.8,1.8,0,0,1-.208-1.683c.517-.639,1.1-1.241,1.566-1.907.142-.205-.019-.567-.035-.762-.1-.472-.17-.8-.241-1.13a.926.926,0,0,1-.052-.219,9,9,0,0,1,.137-1.665c.177-.692-.229-1.565.82-2.029.18-.079.4-.448-.146-.677-.35-.148-.538-.582-.732-.811a10.461,10.461,0,0,0,.94-1.27c.043-.079-.376-.352-.671-.614.017-.025.156-.222.3-.431l-.98-.537c.416-.669.808-1.286,1.18-1.913a.466.466,0,0,0,.031-.358c-.281-.835-.088-1.708-.406-2.575a3.461,3.461,0,0,1-.219-1.849c.271-.841-.106-1.115-.734-1.488a1.533,1.533,0,0,1-.623-1.871l-1.207-.346,1.71-1.406-1.176-.269a6.493,6.493,0,0,0,.935-1.355c.13-.371.762-.834-.264-1.228l.229-.148a21,21,0,0,1,2.265-.4,3.6,3.6,0,0,0,2.139-1.193c.378-.32.871-.623.763-1.237-.023-.123.51-.344.812-.481.6-.272.661-.6.156-.976-.557-.413-.317-.431.234-.615,1.11-.374,2.149-.9,3.317-1.413l.482.217c.347-.8.673-1.545,1.036-2.374l.933.347a9.008,9.008,0,0,1,.847-.564,12.126,12.126,0,0,0,2.586-1.386c.916-.862,2.089-.877,3.2-1.168.08-.021.156-.052.227-.076a.6.6,0,0,1,.144.1c.76,1.1.857,1.121,2.186.433.173-.09.326-.256.5-.278a1.2,1.2,0,0,1,.76.094c.137.111.066.415.085.611,1.533.205,2.108-.9,2.874-1.773l-.371-.539c1.136-.022,2.335.512,3.093-.7a3.194,3.194,0,0,0,.4.545,5.763,5.763,0,0,0,.758.521c.087.052.278.025.316.084.507.793,1.485.618,2.264.786a4.3,4.3,0,0,1,2.451.855,3.923,3.923,0,0,0,2.815.531,6.726,6.726,0,0,1,1.426.138,4.453,4.453,0,0,0,1.01.159c.666-.081,1.278-.211,1.384.623.012.1.239.238.39.264.84.141,1.688.253,2.6.385.007.067.066.2.023.3a4.422,4.422,0,0,1-.34.567c.416.108,1,.422,1.221.289a5.147,5.147,0,0,1,2.84-.454c.64.007.845-.283,1.015-.967l-1.487.428c-.035-.072-.2-.3-.154-.334.833-.65,1.308-1.815,2.833-1.5a.661.661,0,0,0,.489-.106c.855-.864,2.512-.792,3.095-1.988a.924.924,0,0,1,.614-.376c1.062-.15,1.514-1,2.3-1.467.539-.322.794-1.042,1.7-.618.085.04.38-.129.479-.258a1.092,1.092,0,0,1,1.216-.509c.984.118,1-.01.487.961a4.227,4.227,0,0,1,.846-.1,3.167,3.167,0,0,1,.729.27c.411-.448.874-.954,1.337-1.46.029.078.059.154.087.232a3.234,3.234,0,0,0,1.091.091c.683-.2,1.5-.166,1.939-.9.1-.168.985-.112,1.424.031.7.228,1.31.653,2,.919a3.543,3.543,0,0,0,1.084.018c.253.323,1.263.284,1.924-.178a17.668,17.668,0,0,1,2.793-1.852,4.342,4.342,0,0,1,2.257-.037c.467.079.775.09,1.053-.216.909-1,2.184-.99,3.473-.958a2.577,2.577,0,0,0,.715-.021c.831-.225,1.634-.549,2.481-.708.631-.118,1.318.007,1.965-.069a1.037,1.037,0,0,0,.723-.476c.2-.512.593-.6,1.122-.612a5.174,5.174,0,0,0,1.072-.157c.46-.112.906-.271,1.539-.464-.361.88.187,1.026.756,1.044.892.028.991.064,1.129.862a2.959,2.959,0,0,1,.945-.21c.227.025.42.3.784.579l1.3-.776c.026.319.054.644.085,1.039,1.249.18,1.3.931,1.043,1.862-.057.208.2.481.333.758.47-.208.867-.406,1.285-.561a2.642,2.642,0,0,1,.607-.06,4.584,4.584,0,0,0,1.261-.159c.718-.308,1.067-.229,1.261.434a1.957,1.957,0,0,0,1.723.94,13.956,13.956,0,0,1,1.435.066c.054.545.106,1.073.165,1.662.481-.2.928-.431,1.45.127.269.287,1.221.058.824,1.124.543-.377.841-.611,1.171-.807a5.971,5.971,0,0,1,.741-.322,5.986,5.986,0,0,1-.029.789c-.016.1-.161.183-.409.445.912-.431,1.2-.154,1.3.436.144.825.321,1.645.526,2.675l1.284-.97.916.686a4.605,4.605,0,0,1,.991-.19c.342,0,.911-.467.938.35l.989-.62-.153,1.157,2.73-.955.057.172-1.112,1.154c.779.367,1.575.781,2.415,1.114a1.237,1.237,0,0,0,.959-.039c.758-.615,1.528-.3,2.312-.141l1.074.223c-.127.159-.255.316-.3.374h3.58c.047.427-.819,1.249.564.862.066-.018.309.434.562.8a7.184,7.184,0,0,0,.892-.181c.81-.258,1.3-.073,1.78.8a8.032,8.032,0,0,0,.808-.512c.373-.3.67-.752,1.232-.177.087.088.444.042.642-.022,1.086-.353,1.282-.28,1.58.629.793-.069,1.525-.205,2.073.579a6.805,6.805,0,0,0,1.476,1.13c.13.1.179.286.312.377a1.208,1.208,0,0,0,.612.268c.565-.007,1.128-.085,1.691-.138a8.792,8.792,0,0,1,2.442,1.292c.3.446.369,1.178,1.218,1.069a4.567,4.567,0,0,0,1.211-.6c.364-.172.746-.316,1.3-.546-.316.93-.111,1.1,1.251,1.352-.526.684-1.431,1.243-1.148,2.048-.168.325-.3.531-.385.753a2.152,2.152,0,0,1-.437.841c-.056-.127-.113-.256-.193-.437-.392.337-.722.608-.342,1.132a.734.734,0,0,1-.092.732c-.758.942-.753,1.181.127,1.952-.147.639-.283,1.232-.428,1.865l1.389-.115-.784.856,1.232-.437c.075.476.141.9.2,1.277h2.354c-.316,1.021.094,1.59,1.2,1.779a1.707,1.707,0,0,0-.139.533c.017.258.019.642.2.737a.976.976,0,0,0,1.055-.12,5.034,5.034,0,0,0,1.466-1.47c.087-.114.376-.112.572-.163a2.006,2.006,0,0,1,.182.6,2.948,2.948,0,0,1-.212.716c.682-.491,1.226-.885,1.771-1.279l.243.18q-.263.746-.527,1.491l.151.061c.193-.133.387-.266.586-.4l1.445.5a3.834,3.834,0,0,1-.718.377,5.576,5.576,0,0,1-.874.079c.116.281.231.563.35.844a2.72,2.72,0,0,0,.144.25c-.888.966-2.224,1.829-1.443,3.3a12.069,12.069,0,0,1,1.542.431c.737.313.76.773.295,1.355a13.876,13.876,0,0,0-1.055,1.7c-.054.091-.082.283-.026.32.708.47.3,1.061.295,1.621a9.577,9.577,0,0,0,.222,1.246,1.11,1.11,0,0,1-.059.726c-.267.382-1.421.524-2.08.38.213.338.428.678.666,1.057.63-.231.874-.259.833.509-.026.5.654,1.035,1.077,1.638l-2.562,1.427c.045.072.09.144.137.216l1.688-.639.191.141-1,1.154.553.415-3.6,2.845.057.139c.262-.091.529-.172.784-.275a3.462,3.462,0,0,1,1.082-.443c.739-.006,1.037.572.784,1.31-.059.172-.173.464-.1.514.539.355.234.791.116,1.138-.128.382-.557.687-.7,1.067-.186.5-.4.867-1.122.783.749,1.283.531,1.774-.964,2.446a6.882,6.882,0,0,0-.984.71,4.982,4.982,0,0,0,.964.169c.782-.054.876.335.775.85a1.1,1.1,0,0,1-.236.632c-.984.817-.6,1.829-.659,2.8a4.8,4.8,0,0,1-.618,1.46l-.279-.036c.153.153.3.307.479.482a12.676,12.676,0,0,0-1.743,1.5c-.361.443-.376,1.085-.685,1.574a1.6,1.6,0,0,1-.97.624,1.527,1.527,0,0,0-1.386,1.448c-.014.744.224,1.644-1.067,1.933-.191.043-.29.508-.352.791-.019.087.274.331.338.308a3.433,3.433,0,0,0,.788-.4c.319-.211.611-.454,1.088-.811-.135,1.039.38,1.365,1.247,1.6.349.094.67.7.711,1.093.05.469.135.708.7.846.33.081.852.445.815.59a1.762,1.762,0,0,1-.737.907c-.37.244-.748.382-.453.867.059.1-.014.286-.087.4-.272.436-.559.867-.862,1.286-.231.317-.512.608-.748.924s-.441.651-.635.943c-.784-.885-.784-.885-.413-1.559l-.186-.118c-.283.358-.557.722-.85,1.072-.253.3-.562.576-.782.9a.7.7,0,0,0-.108.614c.054.115.4.129.76.226.1.325.1.325-.933.5-.121.448-.219.8-.3,1.108l-1.412-.148-.1.241,1.8.693c-1.2.644-2.371,1.192-3.428,1.87-.453.29-1.032.931-.93,1.271.258.85-.352,1.093-.919,1.078a5.084,5.084,0,0,0-3.573,1.611,5.273,5.273,0,0,0-.8,1.183l.659.241-1.063,1.037c.72.629.687,1.13-.163,1.752-.043.031-.115.058-.125.1-.333,1.279-1.6,1.572-2.768,1.988a9.882,9.882,0,0,1-1.61.723,6.351,6.351,0,0,1-2.243-.088c-.753-.165-1.537.234-1.5.934.04.855-.028.909-1.077.828.056.773-1.242.52-1.294,1.341-.055.879-1.3.19-1.679.849l.508.26c.005.058.012.118.017.177l-1.1.141a4.409,4.409,0,0,1-2.056,1.716,2.126,2.126,0,0,1-.628.012c-.17.009-.416-.015-.5.069-.628.659-.619.666-1.445.025a2.953,2.953,0,0,0,.363-.293c.064-.072.132-.225.094-.262a.546.546,0,0,0-.33-.1,3.455,3.455,0,0,0-2.4.931l.614.264a4.3,4.3,0,0,1-.961.749,2.2,2.2,0,0,1-1.292.174c-.859-.244-1.16-.157-1.384.653-.021.072-.042.144-.078.265-.777.025-1.06.373-1.072,1.079-.012.732-.668,1.03-1.532.985.13.96-.586,1.229-1.393,1.544a1.756,1.756,0,0,0-.82.993c-.236.621-.456,1.048-1.377.8-.227-.061-.616.2-.874.374a2.319,2.319,0,0,1-3.046-.043,6.777,6.777,0,0,1-.394-.579c-.4.153-.98.222-1.237.508-.56.624-1.329.508-2.023.567a1.762,1.762,0,0,1-1.258-.332c-.52-.623-.916-.593-1.589-.186a9.541,9.541,0,0,1-1.9.617,8.558,8.558,0,0,0-1.983-.825c-.427-.079-.985.362-1.44.617a12.951,12.951,0,0,1-1.436.289c-.609.057-1.244.136-1.693-.415a1.3,1.3,0,0,0-1.726-.5,1.228,1.228,0,0,1-1.445-.364,4.875,4.875,0,0,0-1.282-.747l-.5.084c-.038-.365.054-.828-.128-.933a1.727,1.727,0,0,0-1.154-.1c-.465.127-.829.335-.9-.3-1.114-.19-1.575-1.171-2.529-1.547a.724.724,0,0,0-.546.09c-.848.614-.841.621-1.773.473a2.274,2.274,0,0,1-2.368.469c-.324-.127-.663-.226-1.058-.361v-.59a8.311,8.311,0,0,1-1.027.561,6.545,6.545,0,0,1-1.022.214,4.105,4.105,0,0,1-.9.825c-.234.123-.657-.027-1-.051a3.186,3.186,0,0,0-1.183-.052c-.921.359-1.709.03-1.8-.755l-6.215,2.924c-.267-.266-.555-.551-.918-.912a3.6,3.6,0,0,1-2.652.752c-.354-.006-.7-.192-1.06-.232-.4-.045-.808-.012-1.212-.02a10.756,10.756,0,0,1-1.526-.051c-.779-.127-1.539-.344-2.311-.51-.163-.036-.35,0-.513-.031-.767-.169-1.528-.353-2.292-.531.26-.308.139-.669-.451-.909-.071-.028-.168-.1-.165-.156.036-.584-.425-.645-.931-.849a21.292,21.292,0,0,1-2.951-1.545c-.252-.15-.281-.554-.493-.788a.839.839,0,0,0-.624-.27c-.579.2-.789,0-1.265-.335-.968-.68-1.707-1.786-3.235-1.761-.147,0-.3-.365-.51-.632l-4.521-.346a.9.9,0,0,0-1.4-.409c-.565.308-.808.054-1.088-.32a2.9,2.9,0,0,0-.85-.892,22.64,22.64,0,0,0-2.1-.9,9.721,9.721,0,0,1-1.866.677c-.212.033-.536-.463-.925-.828a.913.913,0,0,1-1.14-.678c-.054-.2-.475-.316-.781-.5-.493.548-1.095.274-1.566-.03-.236-.151-.212-.585-.347-.876a4.1,4.1,0,0,0-.449-.71c-.154-.2-.416-.362-.51-.579-.295-.681-.507-1.389-.8-2.069-.2-.461-.5-.886-.734-1.338a7.3,7.3,0,0,1-.3-.822c-.042-.114-.049-.3-.13-.331-.814-.293-.935-1.026-1.386-1.55a10.672,10.672,0,0,0-.893-.693c-.161-.15-.364-.4-.323-.554.2-.752-.422-.777-.968-.892C374.434,248.846,374.368,248.785,374.262,248.723Z" transform="translate(0 0)"/>
 
</svg>
