<svg id="size_3" xmlns="http://www.w3.org/2000/svg" width="905" height="592" viewBox="0 0 905 592">
  <path id="패스_3" data-name="패스 3" d="M0,0H905V592H0Z" fill="rgba(255,255,255,0)"/>
  <g id="ink" transform="translate(-318.53 -155.48)">
    <path id="패스_1" data-name="패스 1" d="M441.543,623.652c.505-.992,1.01-1.977,1.838-3.6-2.8.226-5.1.406-7.8.624-1.725-1.744-3.841-3.9-5.557-5.638-2.883-2.135-5.339-4.022-7.891-5.811a7.824,7.824,0,0,0-2.909-1.376c-4.5-.842-7.029-6.187-3.684-9.945-2.334-1.082-4.564-2.045-6.706-3.142a4.481,4.481,0,0,1-1.629-1.6c-1.3-2.06-2.857-2.571-5.3-1.218-.784.436-2.125.12-3.205.15.47-.872.923-1.744,1.411-2.608a30.417,30.417,0,0,0,1.576-2.8c.54-1.278.9-2.616,1.5-4.435.906,1.015,1.5,1.676,1.55,1.736,3.327-1.654,6.41-3.187,10-4.969-2.648-.887-4.59-1.541-6.915-2.323-1.1,1.233-2.308,2.586-3.423,3.834-2.308-.436-4.538-.865-7.246-1.376.409-.865.854-1.8,1.306-2.744-.435.406-.862.812-1.3,1.218a15.776,15.776,0,0,0-1.341-2.977c-1.907-2.691-3.954-5.315-5.949-7.953-.383-.511-1.15-.962-1.185-1.481-.322-4.089-.61-8.194-.653-12.29-.009-.767,1.15-1.533,1.759-2.315s1.907-1.8,1.681-2.315c-.531-1.173-1.8-2.1-3.231-3.623.052-.075.618-.97,1.55-2.451-1.672.571-2.735.94-4.006,1.368,1.289-2.481,2.465-4.758,4.067-7.855-2.343,1.052-3.858,1.729-5.365,2.405-.165-.18-.34-.361-.505-.541,1.437-1.052,2.874-2.112,4.311-3.165-.1-.3-.183-.594-.279-.895-3.763,1.248-7.5,3.714-11.662-.368-.723-1.323-2.047-3.8-3.414-6.269-2.23-4.022-1.42-7.57,1.925-10.531-1.864-1.21-3.763-2.443-5.635-3.661,1.437-1.8,2.6-3.262,4.154-5.217h-6.689c1.263-2.488,2.308-4.555,3.31-6.532a19.864,19.864,0,0,1-3.013-.646c-2.238-.744-2.6-2.09-1.42-3.879,3.832-5.893,3.6-7.51-1.028-12.689-.871-.977-.941-2.5-1.341-3.774-.183-.594-.017-1.5-.427-1.767-5.574-3.465-1.637-8.156-2.413-12.508-.749-.18-1.768-.428-2.831-.692a12.15,12.15,0,0,1,.174-1.285c1.063-3.841,2.2-7.667,3.144-11.524a2.158,2.158,0,0,0-1.071-1.827c-2.16-1.173-2.465-1.992-.854-4.1,1.515-1.992,5.661-4.916-.1-7.352-.27-.113.54-2.969,1.463-4.2,2.238-2.977,4.834-5.751,7.543-8.9-1.507.135-2.735.248-3.963.361-.314-.256-.627-.5-.941-.759,1.446-1.368,2.622-3.465,4.39-3.954,4.808-1.316,6.68-6.239,5.13-10.885a35.1,35.1,0,0,1-.836-5.518c-1.28-.962-2.517-6.623-1.045-8.449,2.6-3.21,5.539-6.232,7.865-9.577.714-1.03-.1-2.849-.174-3.826-.505-2.368-.854-4.022-1.211-5.675a4.652,4.652,0,0,1-.261-1.1c.174-2.8,0-5.66.688-8.359.888-3.473-1.15-7.855,4.12-10.186.906-.4,1.986-2.248-.732-3.4-1.759-.744-2.7-2.924-3.675-4.074a52.52,52.52,0,0,0,4.721-6.374c.218-.4-1.89-1.767-3.371-3.082.087-.128.784-1.112,1.516-2.165-1.611-.887-3.153-1.729-4.921-2.7,2.09-3.36,4.059-6.457,5.923-9.607a2.34,2.34,0,0,0,.157-1.8c-1.411-4.195-.444-8.577-2.038-12.929-1-2.736-1.855-6.908-1.1-9.284,1.359-4.225-.531-5.6-3.684-7.472-3.911-2.308-3.867-5.841-3.127-9.4-1.916-.549-3.614-1.037-6.062-1.736,3.109-2.556,5.757-4.728,8.588-7.059-2.169-.5-3.815-.872-5.905-1.353,1.916-2.661,3.919-4.57,4.694-6.8.653-1.864,3.823-4.187-1.324-6.164l1.15-.744c3.789-.7,7.542-1.729,11.375-2.007,4.964-.368,7.691-3.405,10.739-5.991,1.9-1.609,4.372-3.127,3.832-6.209-.113-.616,2.561-1.729,4.076-2.413,3.013-1.368,3.318-3.014.784-4.9-2.8-2.075-1.594-2.165,1.176-3.09,5.574-1.879,10.791-4.54,16.653-7.1,0,0,.845.383,2.421,1.09,1.742-4.007,3.379-7.758,5.2-11.922.862.323,2.639.977,4.686,1.744a45.258,45.258,0,0,1,4.25-2.834c4.355-2.323,9.668-3.841,12.986-6.961,4.6-4.33,10.486-4.405,16.043-5.863.4-.105.784-.263,1.141-.383a3.038,3.038,0,0,1,.723.5c3.815,5.525,4.3,5.63,10.974,2.172.871-.451,1.637-1.285,2.534-1.4,1.272-.15,3.022-.158,3.815.474.688.556.331,2.082.427,3.067,7.7,1.03,10.582-4.518,14.432-8.9-.531-.774-1.124-1.631-1.864-2.706,5.7-.113,11.723,2.571,15.529-3.526a16.036,16.036,0,0,0,2.021,2.736,28.939,28.939,0,0,0,3.806,2.616c.436.263,1.394.128,1.585.421,2.543,3.984,7.455,3.1,11.366,3.946,4.363.94,8.5.707,12.307,4.292,2.953,2.789,8.962,3.127,14.136,2.669,2.334-.21,4.781.383,7.159.692,1.707.226,3.458.985,5.069.8,3.344-.406,6.419-1.06,6.95,3.127.061.511,1.2,1.2,1.96,1.323,4.215.707,8.474,1.27,13.047,1.932.035.338.331.992.113,1.488a22.252,22.252,0,0,1-1.707,2.849c2.09.541,5,2.12,6.131,1.451,4.511-2.661,9.389-2.338,14.258-2.278,3.214.038,4.242-1.421,5.1-4.856-2.926.842-5.017,1.443-7.464,2.15-.174-.361-.993-1.5-.775-1.676,4.181-3.262,6.567-9.111,14.223-7.547a3.318,3.318,0,0,0,2.456-.534c4.294-4.337,12.611-3.977,15.538-9.983a4.637,4.637,0,0,1,3.083-1.887c5.33-.752,7.6-5.021,11.531-7.367,2.709-1.616,3.989-5.232,8.544-3.1.427.2,1.907-.646,2.4-1.293,1.489-1.969,2.682-2.962,6.105-2.556,4.938.594,5.043-.053,2.447,4.826a21.215,21.215,0,0,1,4.25-.5,15.892,15.892,0,0,1,3.658,1.353c2.064-2.248,4.39-4.788,6.715-7.329.148.391.3.774.435,1.165,1.838.188,3.885.917,5.478.459,3.432-.992,7.534-.834,9.737-4.5.505-.842,4.947-.564,7.151.158,3.51,1.143,6.576,3.277,10.034,4.615,1.4.541,3.318.09,5.443.09,1.272,1.624,6.341,1.428,9.659-.895,4.6-3.21,8.866-7,14.022-9.3,3.048-1.361,7.647-.812,11.331-.188,2.343.4,3.893.451,5.287-1.082,4.564-5.029,10.965-4.969,17.437-4.811a12.943,12.943,0,0,0,3.588-.105c4.172-1.128,8.2-2.759,12.455-3.556,3.17-.594,6.619.038,9.868-.346a5.2,5.2,0,0,0,3.632-2.39c1.01-2.571,2.979-3,5.635-3.074a25.981,25.981,0,0,0,5.382-.789c2.308-.564,4.546-1.361,7.725-2.33-1.812,4.42.941,5.149,3.8,5.239,4.477.143,4.973.323,5.67,4.33,1.611-.406,3.249-1.218,4.747-1.052,1.141.128,2.108,1.488,3.937,2.909q2.639-1.567,6.55-3.894c.131,1.6.27,3.232.427,5.217,6.271.9,6.506,4.676,5.234,9.351-.287,1.045,1.019,2.413,1.672,3.8,2.36-1.045,4.355-2.037,6.454-2.819a13.267,13.267,0,0,1,3.048-.3c2.134-.226,4.52-.015,6.332-.8,3.606-1.549,5.356-1.15,6.332,2.18.732,2.488,5.426,4.879,8.649,4.721a70.083,70.083,0,0,1,7.2.331c.27,2.736.531,5.39.827,8.344,2.413-.985,4.66-2.165,7.281.639,1.35,1.443,6.132.293,4.137,5.645,2.726-1.894,4.224-3.067,5.879-4.052a29.985,29.985,0,0,1,3.719-1.616,30,30,0,0,1-.148,3.962c-.078.5-.81.917-2.056,2.233,4.581-2.165,6.01-.774,6.524,2.188.723,4.142,1.611,8.261,2.639,13.433,2.613-1.977,4.381-3.315,6.445-4.871,1.385,1.037,3.066,2.3,4.6,3.443a23.118,23.118,0,0,1,4.973-.955c1.716.023,4.572-2.345,4.712,1.759,1.8-1.135,3.162-1.985,4.964-3.112-.27,2.052-.488,3.7-.766,5.811,4.651-1.624,9.18-3.21,13.709-4.8.1.286.192.579.287.864-1.873,1.939-3.736,3.879-5.583,5.8,3.911,1.842,7.908,3.924,12.124,5.593,1.341.534,3.9.549,4.816-.2,3.806-3.09,7.673-1.518,11.61-.707,1.611.331,3.222.669,5.391,1.12-.636.8-1.28,1.586-1.507,1.879h17.977c.235,2.142-4.111,6.269,2.831,4.33.331-.09,1.55,2.18,2.822,4.022a36.09,36.09,0,0,0,4.477-.91c4.067-1.293,6.515-.368,8.936,4.014a40.288,40.288,0,0,0,4.059-2.571c1.873-1.518,3.362-3.774,6.184-.887.435.444,2.23.21,3.223-.113,5.452-1.774,6.436-1.406,7.934,3.157,3.98-.346,7.656-1.03,10.408,2.909,1.629,2.33,4.93,3.766,7.412,5.675.653.5.9,1.436,1.568,1.894a6.065,6.065,0,0,0,3.074,1.346c2.839-.038,5.661-.428,8.492-.692,1.5-.143,11.505,5.367,12.263,6.487,1.516,2.24,1.855,5.916,6.114,5.367,2.151-.271,4.015-2.03,6.079-3.007,1.829-.864,3.745-1.586,6.515-2.744-1.585,4.668-.557,5.54,6.28,6.788-2.639,3.435-7.185,6.239-5.766,10.283-.845,1.631-1.507,2.669-1.934,3.781a10.811,10.811,0,0,1-2.195,4.225c-.279-.639-.566-1.285-.967-2.2-1.968,1.691-3.623,3.052-1.716,5.683.61.842.279,2.751-.462,3.676-3.806,4.728-3.78,5.931.636,9.8-.74,3.21-1.42,6.187-2.151,9.366,2.822-.233,4.346-.361,6.976-.579-1.594,1.744-2.378,2.6-3.937,4.3,2.5-.887,3.867-1.376,6.184-2.2.375,2.39.706,4.5,1.01,6.412h11.819c-1.585,5.127.47,7.983,6.01,8.93a8.556,8.556,0,0,0-.7,2.676c.087,1.293.1,3.225.993,3.7,1.507.8,2.979.767,5.3-.6,3.475-2.067,5.261-4.646,7.359-7.382.435-.571,1.89-.564,2.874-.819a10.072,10.072,0,0,1,.915,3.029,14.793,14.793,0,0,1-1.063,3.593c3.423-2.466,6.157-4.443,8.892-6.42.409.3.81.6,1.219.9q-1.32,3.743-2.648,7.487c.253.105.505.2.758.308.967-.669,1.942-1.338,2.944-2.022,2.082.722,4.181,1.443,7.255,2.511a19.251,19.251,0,0,1-3.606,1.894,27.994,27.994,0,0,1-4.39.4c.584,1.413,1.158,2.826,1.76,4.24a13.684,13.684,0,0,0,.723,1.255c-4.459,4.849-11.166,9.186-7.246,16.545a60.6,60.6,0,0,1,7.743,2.165c3.7,1.571,3.815,3.879,1.481,6.8a69.771,69.771,0,0,0-5.3,8.532c-.27.459-.409,1.421-.13,1.609,3.553,2.36,1.515,5.33,1.48,8.141-.026,2.082.853,4.157,1.115,6.254.148,1.21.357,2.714-.3,3.646-1.341,1.917-7.133,2.631-10.443,1.909,1.071,1.7,2.151,3.405,3.345,5.307,3.161-1.158,4.39-1.3,4.18,2.556-.131,2.526,3.284,5.194,5.409,8.224-4.041,2.248-8.457,4.706-12.864,7.164.227.361.453.722.688,1.082q4.233-1.6,8.474-3.21c.322.233.636.474.958.707-1.577,1.812-3.153,3.631-5.034,5.8.54.406,1.376,1.03,2.778,2.082-6.079,4.8-12.089,9.539-18.1,14.282l.287.7c1.315-.459,2.656-.865,3.937-1.383,1.838-.744,3.623-2.21,5.435-2.225,3.71-.03,5.208,2.872,3.937,6.577-.3.865-.871,2.33-.5,2.578,2.709,1.782,1.176,3.969.584,5.713-.645,1.917-2.8,3.45-3.5,5.36-.932,2.511-2.029,4.352-5.635,3.931,3.762,6.442,2.665,8.908-4.843,12.283-1.516.684-2.7,1.924-4.938,3.563,2.465.459,3.676.932,4.843.849,3.928-.271,4.4,1.684,3.893,4.27-.218,1.1-.366,2.488-1.184,3.172-4.938,4.1-3.022,9.186-3.31,14.065-.148,2.481-2.012,4.886-3.1,7.329l-1.4-.18c.766.767,1.524,1.541,2.4,2.42-3,2.511-6.428,4.683-8.753,7.532-1.812,2.225-1.89,5.45-3.44,7.9a8.028,8.028,0,0,1-4.869,3.135c-4.154.692-6.889,3.6-6.959,7.269-.07,3.736,1.124,8.254-5.356,9.7-.958.218-1.455,2.548-1.768,3.969-.1.436,1.376,1.661,1.7,1.549a17.226,17.226,0,0,0,3.954-2c1.6-1.06,3.066-2.278,5.461-4.074-.679,5.217,1.907,6.856,6.262,8.028,1.751.474,3.362,3.5,3.571,5.487.253,2.353.679,3.556,3.5,4.247,1.655.406,4.276,2.233,4.093,2.962a8.843,8.843,0,0,1-3.7,4.555c-1.855,1.225-3.754,1.917-2.273,4.352.3.481-.07,1.436-.436,2.022-1.367,2.188-2.8,4.352-4.329,6.457-1.158,1.594-2.569,3.052-3.754,4.638s-2.212,3.27-3.188,4.736c-3.937-4.443-3.937-4.443-2.073-7.825-.313-.2-.618-.391-.932-.594-1.42,1.8-2.8,3.623-4.268,5.382-1.271,1.526-2.822,2.894-3.928,4.5a3.526,3.526,0,0,0-.54,3.082c.27.579,2.012.646,3.815,1.135.488,1.631.488,1.631-4.686,2.511-.609,2.248-1.1,4.037-1.515,5.563-2.543-.271-4.816-.5-7.09-.744-.174.406-.348.8-.523,1.21,2.656,1.022,5.313,2.052,9.032,3.48-6.036,3.232-11.906,5.984-17.21,9.389-2.273,1.458-5.182,4.676-4.668,6.382,1.3,4.27-1.768,5.487-4.616,5.412-7.961-.211-12.977,3.886-17.942,8.088-1.742,1.473-2.587,3.744-4.033,5.939.923.338,1.977.722,3.31,1.21-1.829,1.782-3.58,3.488-5.339,5.209,3.614,3.157,3.449,5.675-.819,8.8-.218.158-.575.293-.627.489-1.672,6.42-8.013,7.893-13.9,9.983-2.813.992-5.234,3.2-8.083,3.631a31.888,31.888,0,0,1-11.261-.444c-3.78-.827-7.717,1.173-7.551,4.691.2,4.292-.139,4.563-5.409,4.157.279,3.879-6.236,2.608-6.5,6.735-.279,4.412-6.55.955-8.431,4.262.845.436,1.7.872,2.552,1.308.026.293.061.594.087.887l-5.5.707a22.141,22.141,0,0,1-10.321,8.615c-.862.361-2.1.007-3.153.06-.854.045-2.09-.075-2.491.346-3.153,3.308-3.109,3.345-7.255.128a14.826,14.826,0,0,0,1.82-1.473c.322-.361.662-1.128.47-1.315a2.74,2.74,0,0,0-1.655-.519c-4.633-.2-8.318,1.654-12.045,4.676,1.158.5,2.264.97,3.083,1.323-1.542,1.255-2.927,2.962-4.825,3.758-1.916.8-4.607,1.406-6.489.872-4.311-1.225-5.827-.789-6.95,3.277-.1.361-.209.722-.392,1.331-3.9.128-5.322,1.872-5.383,5.42-.061,3.676-3.353,5.172-7.691,4.946.653,4.818-2.944,6.172-6.994,7.75-1.89.737-3.4,3.09-4.12,4.984-1.184,3.12-2.291,5.262-6.915,4.029-1.141-.308-3.092,1.007-4.39,1.879-4.86,3.27-11.653,4.112-15.294-.218a34,34,0,0,1-1.977-2.909c-1.995.767-4.921,1.113-6.21,2.548-2.813,3.135-6.672,2.548-10.155,2.849-2.082.18-5.261-.406-6.314-1.669-2.613-3.127-4.6-2.977-7.978-.932-2.421,1.466-5.687,1.894-9.563,3.1-2.552-1.135-6.053-3.42-9.955-4.142-2.142-.4-4.947,1.819-7.229,3.1a64.974,64.974,0,0,1-7.212,1.451c-3.057.286-6.245.684-8.5-2.082-2.09-2.563-4.346-4.315-8.666-2.5a6.167,6.167,0,0,1-7.255-1.827c-1.167-1.481-3.649-2.187-6.436-3.751-.2.038-1.681.286-2.508.421-.192-1.834.27-4.157-.645-4.683a8.673,8.673,0,0,0-5.792-.489c-2.334.639-4.163,1.684-4.512-1.511-5.591-.955-7.908-5.878-12.7-7.765a3.635,3.635,0,0,0-2.744.451c-4.259,3.082-4.224,3.12-8.9,2.375-2.1,2.789-7.917,3.909-11.889,2.353-1.629-.639-3.327-1.135-5.313-1.812v-2.962a41.711,41.711,0,0,1-5.156,2.819,32.855,32.855,0,0,1-5.13,1.075c-1.3,1.255-2.6,3.142-4.529,4.142-1.176.616-3.3-.135-5-.256-2-.135-4.329-.887-5.94-.263-4.625,1.8-8.579.15-9.049-3.789-10.19,4.8-20.554,9.674-31.206,14.681-1.341-1.338-2.787-2.766-4.607-4.578-3.589,3.36-8.4,3.856-13.317,3.774-1.777-.03-3.519-.962-5.322-1.165-2-.226-4.059-.06-6.088-.1a54.03,54.03,0,0,1-7.664-.256c-3.911-.639-7.725-1.729-11.6-2.563-.819-.18-1.759.022-2.578-.158-3.85-.849-7.673-1.774-11.505-2.669,1.306-1.549.7-3.36-2.265-4.563-.357-.143-.845-.526-.827-.782.183-2.932-2.134-3.24-4.677-4.262a106.9,106.9,0,0,1-14.815-7.758c-1.263-.752-1.411-2.781-2.474-3.954-.679-.752-2.386-1.616-3.135-1.353-2.909,1.007-3.963-.007-6.349-1.684-4.86-3.413-8.57-8.968-16.243-8.84-.74.015-1.524-1.834-2.561-3.172-7.09-.541-14.85-1.135-22.7-1.737-.932-2.751-3.858-3.789-7.037-2.052-2.839,1.549-4.059.271-5.461-1.609-1.211-1.631-2.465-3.51-4.268-4.48a113.658,113.658,0,0,0-10.539-4.518c-3.493,1.361-6.314,2.917-9.372,3.4-1.063.165-2.691-2.323-4.642-4.157-1.96.226-4.747.173-5.722-3.405-.27-.985-2.386-1.586-3.919-2.533-2.474,2.751-5.5,1.376-7.865-.15-1.184-.759-1.063-2.939-1.742-4.4a20.607,20.607,0,0,0-2.256-3.563c-.775-1.022-2.09-1.819-2.561-2.909-1.481-3.42-2.543-6.976-4.033-10.389-1.01-2.315-2.534-4.45-3.684-6.72a36.663,36.663,0,0,1-1.524-4.127c-.209-.571-.244-1.511-.653-1.661-4.085-1.473-4.695-5.149-6.959-7.78-1.176-1.368-3.118-2.218-4.485-3.48-.81-.752-1.829-1.985-1.62-2.781.984-3.773-2.116-3.9-4.86-4.48C442.4,624.268,442.074,623.96,441.543,623.652Z" transform="translate(0 0)"/>
    <path id="패스_2" data-name="패스 2" d="M834.567,184.91l5.1,1.646c.075.353.15.707.233,1.06-.985.293-2.1,1.015-2.924.774a13.225,13.225,0,0,1-3.323-2.142C833.951,185.8,834.259,185.361,834.567,184.91Z" transform="translate(-60.931 -7.307)"/>
  </g>
</svg>
