<svg width="195" height="119" viewBox="0 0 195 119" fill="none" xmlns="http://www.w3.org/2000/svg">
<path d="M16.25 100.038L17.25 99.038H15.25L14.25 98.038L12.25 97.038C12.1187 97.1037 11.9757 97.1428 11.8293 97.1532C11.6828 97.1636 11.5357 97.1451 11.3965 97.0986C11.2572 97.0522 11.1284 96.9788 11.0175 96.8826C10.9065 96.7864 10.8157 96.6693 10.75 96.538C10.6843 96.4067 10.6452 96.2637 10.6348 96.1172C10.6244 95.9708 10.6429 95.8237 10.6893 95.6844C10.7358 95.5452 10.8092 95.4164 10.9054 95.3055C11.0016 95.1945 11.1187 95.1037 11.25 95.038L10.25 94.038C10.098 94.1258 9.92554 94.172 9.75 94.172C9.57446 94.172 9.40202 94.1258 9.25 94.038C9.25 93.7728 9.14463 93.5184 8.95709 93.3309C8.76956 93.1434 8.51522 93.038 8.25 93.038C8.27783 92.7052 8.27783 92.3707 8.25 92.038L9.25 91.038V92.038L11.25 91.038L10.25 90.038L9.25 91.038H7.25C7.30595 90.707 7.30595 90.369 7.25 90.038L6.25 88.038V85.038C6.29183 84.706 6.29183 84.37 6.25 84.038H5.25L6.25 82.038H3.25V80.038C3.07446 79.734 2.98206 79.3891 2.98206 79.038C2.98206 78.6869 3.07446 78.342 3.25 78.038H2.25L3.25 77.038H1.25L2.25 75.038C1.91798 75.0798 1.58202 75.0798 1.25 75.038V72.038C1.16532 71.71 1.16532 71.3659 1.25 71.038C-0.75 70.038 0.25 69.038 0.25 68.038V63.038C0.165322 62.71 0.165322 62.3659 0.25 62.038L2.25 60.038H1.25V59.038C1.78043 59.038 2.28914 58.8273 2.66422 58.4522C3.03929 58.0771 3.25 57.5684 3.25 57.038C2.88376 56.7393 2.54872 56.4042 2.25 56.038C2.07446 55.734 1.98206 55.3891 1.98206 55.038C1.98206 54.6869 2.07446 54.342 2.25 54.038L4.25 53.038V52.038L3.25 51.038C3.16223 50.886 3.11603 50.7135 3.11603 50.538C3.11603 50.3625 3.16223 50.19 3.25 50.038C3.55659 49.6789 3.89095 49.3446 4.25 49.038V46.038L3.25 45.038C3.60652 44.7287 3.94068 44.3945 4.25 44.038V43.038L3.25 42.038L4.25 41.038V38.038C4.02124 37.391 4.02124 36.685 4.25 36.038L3.25 34.038C2.90308 33.8421 2.62256 33.5471 2.4444 33.1908C2.26623 32.8345 2.19853 32.433 2.25 32.038H1.25L3.25 31.038L2.25 30.038C2.62159 29.7452 2.95725 29.4096 3.25 29.038L2.25 28.038C3.22345 27.6297 4.22629 27.2955 5.25 27.038C5.99817 26.9016 6.69195 26.5547 7.25 26.038L8.25 25.038V24.038L9.25 23.038C8.25 23.038 8.25 23.038 9.25 23.038L12.25 21.038L13.25 22.038L14.25 19.038L15.25 20.038C15.2315 19.7049 15.2315 19.3711 15.25 19.038C16.2897 18.8385 17.2985 18.5022 18.25 18.038L18.572 14.149C18.724 14.0612 18.8965 14.015 19.072 14.015C19.2475 14.015 19.42 14.0612 19.572 14.149C19.572 16.149 19.572 16.149 21.572 15.149C21.724 15.0612 21.8965 15.015 22.072 15.015C22.2475 15.015 22.42 15.0612 22.572 15.149L25.572 14.149V13.149L28.572 12.149C28.516 12.48 28.516 12.818 28.572 13.149C28.9047 13.1768 29.2392 13.1768 29.572 13.149L31.572 14.149C32.1138 14.103 32.6592 14.168 33.175 14.34C33.6908 14.5119 34.1662 14.7872 34.572 15.149C34.9778 15.5108 35.4532 15.7861 35.969 15.958C36.4848 16.13 37.0302 16.1949 37.572 16.149C37.9049 16.1251 38.2391 16.1251 38.572 16.149C38.904 16.1908 39.24 16.1908 39.572 16.149L41.572 17.149H44.572C44.3007 17.5391 43.9621 17.8777 43.572 18.149H44.572C45.5484 17.8419 46.5956 17.8419 47.572 18.149L48.572 17.149H47.572C48.572 16.149 48.572 15.149 85.726 11C86.726 11 88.726 11 88.726 9C88.878 8.91223 89.0505 8.86601 89.226 8.86601C89.4015 8.86601 89.574 8.91223 89.726 9L91.726 8L93.726 7C93.726 6.73478 93.8314 6.48043 94.0189 6.29289C94.2064 6.10536 94.4608 6 94.726 6L95.726 7C96.058 6.95817 96.394 6.95817 96.726 7L98.726 6C99.057 6.05595 99.395 6.05595 99.726 6L101.726 5H102.726L104.726 6C105.058 6.04183 105.394 6.04183 105.726 6H107.726C108.657 5.23461 109.662 4.56458 110.726 4C111.382 3.83064 112.07 3.83064 112.726 4H113.726L117.726 3C118.057 3.05595 118.395 3.05595 118.726 3L120.726 2H122.726C122.878 2.08777 123.05 2.13397 123.226 2.13397C123.402 2.13397 123.574 2.08777 123.726 2L124.726 1C125.059 1.03342 125.394 1.03342 125.726 1L127.726 0V2H128.726C129.057 1.94405 129.395 1.94405 129.726 2L130.726 3L131.726 2L132.726 3L133.726 5V6L134.726 5C135.057 4.94405 135.395 4.94405 135.726 5C136.059 5.03342 136.394 5.03342 136.726 5H137.726C137.922 5.34692 138.217 5.62744 138.573 5.8056C138.93 5.98377 139.331 6.05147 139.726 6C140.392 5.95232 141.06 5.95232 141.726 6V8H142.726L143.726 9L144.726 8C145.059 7.97217 145.393 7.97217 145.726 8C145.754 8.33275 145.754 8.66725 145.726 9H144.726L146.726 10V12L148.726 11V12C149.059 11.9666 149.394 11.9666 149.726 12H151.726V13L154.726 12L153.726 13L155.726 14C155.878 14.0878 156.05 14.134 156.226 14.134C156.402 14.134 156.574 14.0878 156.726 14H160.726L159.726 15H163.726V16H164.726C165.059 16.0238 165.393 16.0238 165.726 16L167.726 17C168.059 17.0209 168.393 17.0209 168.726 17L169.726 16L171.726 17L173.726 18C174.335 18.4383 175.01 18.776 175.726 19H177.726C178.777 19.1537 179.793 19.4922 180.726 20L181.726 22C182.105 21.7157 182.442 21.379 182.726 21L183.726 20L185.726 22L183.726 24V25H182.726V26C182.814 26.152 182.86 26.3245 182.86 26.5C182.86 26.6755 182.814 26.848 182.726 27V31H184.726V32H186.726L187.726 34C187.641 34.328 187.641 34.672 187.726 35C187.878 35.0878 188.05 35.134 188.226 35.134C188.402 35.134 188.574 35.0878 188.726 35C189.46 34.8219 190.143 34.48 190.726 34V33C191.17 33.2004 191.526 33.556 191.726 34C191.477 34.4083 191.134 34.7511 190.726 35L192.726 34V35H194.726C194.455 35.3901 194.116 35.7287 193.726 36C193.393 36.0278 193.059 36.0278 192.726 36L193.726 37C192.726 38 191.726 39 192.726 40C193.079 40.3134 193.413 40.6473 193.726 41V42C193.34 42.6389 193.005 43.3077 192.726 44L193.726 46C193.709 46.3331 193.709 46.6669 193.726 47C193.814 47.152 193.86 47.3245 193.86 47.5C193.86 47.6755 193.814 47.848 193.726 48H191.726V49L192.726 50L193.726 51L191.726 53L192.726 52H193.726L192.726 53V54L189.726 57C190.239 56.4214 190.955 56.0631 191.726 56V60L190.726 61L189.726 63C189.36 63.2987 189.025 63.6338 188.726 64C189.059 64.0334 189.394 64.0334 189.726 64V65C189.814 65.152 189.86 65.3245 189.86 65.5C189.86 65.6755 189.814 65.848 189.726 66L188.726 69C188.759 69.3325 188.759 69.6675 188.726 70C187.989 70.5919 187.318 71.2626 186.726 72V74C186.398 74.0847 186.054 74.0847 185.726 74C185.196 74 184.687 74.2107 184.312 74.5858C183.937 74.9609 183.726 75.4696 183.726 76L182.726 78V79C183.134 78.7511 183.477 78.4083 183.726 78L184.726 77L185.726 79L186.726 80L187.726 81V82L186.726 83V84L185.726 85V86L184.726 87V85H183.726V86L182.726 87C182.638 87.152 182.592 87.3245 182.592 87.5C182.592 87.6755 182.638 87.848 182.726 88L181.726 89V90L178.726 92L177.726 94L176.726 95C175.644 95 174.591 95.3509 173.726 96C173.347 96.2843 173.01 96.621 172.726 97V98L171.726 99V101L168.726 103C168.393 103.017 168.059 103.017 167.726 103C166.742 103.254 165.71 103.254 164.726 103L163.726 104L162.726 105L161.726 106L159.726 107V108H158.726C158.168 108.517 157.474 108.864 156.726 109L155.726 110H154.726C154.782 109.669 154.782 109.331 154.726 109C154.182 108.871 153.614 108.896 153.084 109.073C152.554 109.249 152.083 109.57 151.726 110H152.726C152.455 110.39 152.116 110.729 151.726 111C151.398 111.085 151.054 111.085 150.726 111L148.726 112L147.726 113L146.726 114L144.726 116C144.641 116.328 144.641 116.672 144.726 117H142.726L141.726 118C141.538 118.213 141.308 118.383 141.049 118.5C140.79 118.617 140.51 118.677 140.226 118.677C139.942 118.677 139.662 118.617 139.403 118.5C139.145 118.383 138.914 118.213 138.726 118C138.702 117.667 138.702 117.333 138.726 117L137.726 118H135.726C135.422 118.176 135.077 118.268 134.726 118.268C134.375 118.268 134.03 118.176 133.726 118H132.726C132.061 118.067 131.391 118.067 130.726 118C130.104 117.585 129.432 117.249 128.726 117L126.726 118C126.393 118.013 126.059 118.013 125.726 118H123.726C123.726 117.735 123.621 117.48 123.433 117.293C123.246 117.105 122.991 117 122.726 117C122.726 117.265 122.621 117.52 122.433 117.707C122.246 117.895 121.991 118 121.726 118C121.461 118 121.206 117.895 121.019 117.707C120.831 117.52 120.726 117.265 120.726 117C120.442 116.621 120.105 116.284 119.726 116H118.726V115C118.398 114.915 118.054 114.915 117.726 115H116.726L114.726 114C114.574 113.912 114.402 113.866 114.226 113.866C114.05 113.866 113.878 113.912 113.726 114H111.726C111.53 114.347 111.235 114.627 110.879 114.806C110.522 114.984 110.121 115.051 109.726 115L108.726 114C108.393 114.021 108.059 114.021 107.726 114C107.393 114.024 107.059 114.024 106.726 114C106.455 114.39 106.116 114.729 105.726 115H104.726C104.395 114.944 104.057 114.944 103.726 115L101.726 114L95.726 117L94.726 116C94.3202 116.362 93.8448 116.637 93.329 116.809C92.8132 116.981 92.2678 117.046 91.726 117H89.726C89.0607 117.061 88.3913 117.061 87.726 117L85.726 116H82.726V115L81.726 114C80.6705 113.421 79.6668 112.751 78.726 112L77.726 111H75.726C74.726 110 74.726 109 72.726 109V108H67.726C67.574 107.912 67.4015 107.866 67.226 107.866C67.0505 107.866 66.878 107.912 66.726 108L65.726 107C65.395 106.944 65.057 106.944 64.726 107C64.076 106.634 63.4085 106.301 62.726 106C62.061 106.067 61.391 106.067 60.726 106L59.726 105C59.574 105.088 59.4015 105.134 59.226 105.134C59.0505 105.134 58.878 105.088 58.726 105L57.726 104H55.726V103L54.726 102L53.726 100V99C53.3598 98.7013 53.0247 98.3662 52.726 98L51.726 96C51.4145 95.6456 51.0805 95.3115 50.726 95C49.726 95 50.726 95 50.726 95L49.726 94H48.726L16.25 100.038Z" fill="black"/>
</svg>
