<svg width="202" height="123" viewBox="0 0 202 123" fill="none" xmlns="http://www.w3.org/2000/svg">
<g filter="url(#filter0_d_4_3004)">
<path d="M53.5506 5.83636C50.9506 6.3697 48.7173 7.00303 46.8506 7.73636H45.3506L42.6506 6.43637L40.6506 6.63636L42.1506 -2.16364L21.6506 4.73636C20.984 4.60303 20.3506 4.53637 19.7506 4.53637C17.9506 4.53637 16.284 4.90303 14.7506 5.63636L10.3506 1.23636L7.05063 11.2364L6.15063 11.3364L6.05063 14.1364V14.1364L3.15063 16.0364L0.0506344 19.1364C-0.482699 19.3364 -1.01603 19.5697 -1.54937 19.8364L-15.3494 25.5364L-11.6494 29.2364L-12.7494 30.2364L-7.54937 35.3364C-7.41603 36.5364 -7.04937 37.703 -6.44937 38.8364C-6.44937 38.903 -6.41603 38.9697 -6.34937 39.0364L-10.8494 43.5364L-9.64937 44.6364L-11.3494 46.0364L-6.74936 50.7364C-6.74936 50.803 -6.74936 50.903 -6.74936 51.0364H-8.74936V58.9364V59.0364L-9.44937 61.6364C-9.84937 63.103 -9.94936 64.5364 -9.74936 65.9364V69.4364C-10.1494 71.503 -10.0827 73.4697 -9.54937 75.3364C-9.34937 76.003 -9.0827 76.6364 -8.74936 77.2364V77.3364L-9.04937 77.8364L-21.8494 90.7364H-7.74936L-10.8494 96.9364H-3.14936L-4.34937 104.136H-2.24936L-2.34937 106.236H-0.449366V106.536L-13.1494 119.136L46.7506 108.036L47.6506 109.936V117.536H56.3506C56.5506 117.603 56.7506 117.703 56.9506 117.836L58.3506 119.236L61.8506 119.536C62.1173 119.536 62.3506 119.57 62.5506 119.636L63.2506 120.036L65.2506 122.036V122.736H65.9506L67.4506 124.136L69.9506 122.736H72.1506L74.2506 124.736H75.6506V129.936H86.3506L88.0506 130.736L89.9506 130.936C91.0173 131.003 92.1173 131.003 93.2506 130.936H94.6506C94.784 130.936 94.884 130.936 94.9506 130.936L97.1506 133.136L105.351 129.036L105.851 129.336L108.251 128.936H112.651V128.836C112.784 128.836 112.884 128.836 112.951 128.836V129.936H118.151V132.036H130.051C130.584 132.036 131.117 132.036 131.651 132.036L133.751 131.936V131.936H134.351C135.284 132.07 136.217 132.103 137.151 132.036C137.884 132.17 138.684 132.236 139.551 132.236C140.217 132.236 140.851 132.203 141.451 132.136C142.651 132.536 143.917 132.736 145.251 132.736C146.984 132.736 148.617 132.37 150.151 131.636C150.617 131.436 151.051 131.203 151.451 130.936H162.751L161.051 124.136L161.351 124.036L161.751 123.736H165.351L167.451 121.636H175.451V116.436L177.951 116.336L187.851 109.836V107.536L192.251 103.136V103.136L194.551 100.836L198.151 98.4364V97.2364L202.351 93.0364V92.0364L203.351 91.0364V89.9364L204.451 88.9364V79.6364L203.551 78.7364L204.951 77.5364L205.451 73.3364C205.451 73.2697 205.451 73.1697 205.451 73.0364L205.851 71.9364C206.317 70.7364 206.584 69.4697 206.651 68.1364L208.551 66.2364V61.0364L209.551 60.0364V58.9364L224.851 43.7364H210.651V42.4364L214.751 38.2364L213.351 36.8364L220.851 26.2364H209.551V19.0364L205.051 21.3364L190.251 6.53637L186.851 10.0364C186.384 9.90303 185.917 9.80303 185.451 9.73636H185.351L190.651 4.53637H173.951L173.751 4.43637V4.53637H167.151V2.43637H164.051V-4.76364L156.951 -1.26364H156.751V-3.06363L149.151 -3.66364L148.451 -4.76364H143.651L142.251 -6.16364V-16.1636L128.151 -9.06364L125.451 -9.36364L123.951 -7.86364H122.651L120.451 -6.86364L116.851 -5.96364C115.317 -6.09697 113.751 -5.9303 112.151 -5.46364L111.051 -5.26364L109.951 -4.66364C109.817 -4.59697 109.651 -4.49697 109.451 -4.36364L108.751 -4.76364H102.951L101.451 -4.06363L100.651 -4.16364L99.8506 -3.76364H98.0506C95.0506 -3.76364 92.484 -2.7303 90.3506 -0.663635C89.1506 -0.396969 87.984 0.036364 86.8506 0.636364L84.9506 1.73636C69.6173 3.4697 59.1506 4.83636 53.5506 5.83636Z" fill="black"/>
</g>
<defs>
<filter id="filter0_d_4_3004" x="-25.8494" y="-16.1636" width="254.7" height="157.3" filterUnits="userSpaceOnUse" color-interpolation-filters="sRGB">
<feFlood flood-opacity="0" result="BackgroundImageFix"/>
<feColorMatrix in="SourceAlpha" type="matrix" values="0 0 0 0 0 0 0 0 0 0 0 0 0 0 0 0 0 0 127 0" result="hardAlpha"/>
<feOffset dy="4"/>
<feGaussianBlur stdDeviation="2"/>
<feComposite in2="hardAlpha" operator="out"/>
<feColorMatrix type="matrix" values="0 0 0 0 0 0 0 0 0 0 0 0 0 0 0 0 0 0 0.25 0"/>
<feBlend mode="normal" in2="BackgroundImageFix" result="effect1_dropShadow_4_3004"/>
<feBlend mode="normal" in="SourceGraphic" in2="effect1_dropShadow_4_3004" result="shape"/>
</filter>
</defs>
</svg>
